<svg width="36" height="36" viewBox="0 0 36 36" fill="none" xmlns="http://www.w3.org/2000/svg">
<mask id="path-2-inside-1_1922_18639" fill="white">
<path fill-rule="evenodd" clip-rule="evenodd" d="M6.26827 10.9988L6.50387 11.1362L17.4961 17.5484C17.8075 17.73 18.1925 17.73 18.5039 17.5484L29.4961 11.1362L29.7317 10.9988C29.3858 10.4017 28.7398 10 28 10H8C7.26022 10 6.61425 10.4017 6.26827 10.9988ZM30 13.1577L19.5116 19.2759C18.5775 19.8208 17.4225 19.8208 16.4884 19.2759L6 13.1577V24C6 25.1046 6.89543 26 8 26H28C29.1046 26 30 25.1046 30 24V13.1577Z"/>
</mask>
<path fill-rule="evenodd" clip-rule="evenodd" d="M6.26827 10.9988L6.50387 11.1362L17.4961 17.5484C17.8075 17.73 18.1925 17.73 18.5039 17.5484L29.4961 11.1362L29.7317 10.9988C29.3858 10.4017 28.7398 10 28 10H8C7.26022 10 6.61425 10.4017 6.26827 10.9988ZM30 13.1577L19.5116 19.2759C18.5775 19.8208 17.4225 19.8208 16.4884 19.2759L6 13.1577V24C6 25.1046 6.89543 26 8 26H28C29.1046 26 30 25.1046 30 24V13.1577Z" fill="currentColor"/>
<path d="M6.26827 10.9988L4.53776 9.99612L3.53803 11.7216L5.26053 12.7263L6.26827 10.9988ZM6.50387 11.1362L7.51161 9.40866L7.51161 9.40866L6.50387 11.1362ZM17.4961 17.5484L18.5039 15.8208L18.5039 15.8208L17.4961 17.5484ZM18.5039 17.5484L17.4961 15.8208L17.4961 15.8208L18.5039 17.5484ZM29.4961 11.1362L28.4884 9.40866L28.4884 9.40866L29.4961 11.1362ZM29.7317 10.9988L30.7395 12.7263L32.462 11.7216L31.4622 9.99612L29.7317 10.9988ZM30 13.1577H32V9.67563L28.9923 11.4301L30 13.1577ZM19.5116 19.2759L18.5039 17.5484L18.5039 17.5484L19.5116 19.2759ZM16.4884 19.2759L17.4961 17.5484L16.4884 19.2759ZM6 13.1577L7.00774 11.4301L4 9.67563V13.1577H6ZM5.26053 12.7263L5.49613 12.8638L7.51161 9.40866L7.27601 9.27123L5.26053 12.7263ZM5.49613 12.8638L16.4884 19.2759L18.5039 15.8208L7.51161 9.40866L5.49613 12.8638ZM16.4884 19.2759C17.4225 19.8208 18.5775 19.8208 19.5116 19.2759L17.4961 15.8208C17.8075 15.6392 18.1925 15.6392 18.5039 15.8208L16.4884 19.2759ZM19.5116 19.2759L30.5039 12.8638L28.4884 9.40866L17.4961 15.8208L19.5116 19.2759ZM30.5039 12.8638L30.7395 12.7263L28.724 9.27123L28.4884 9.40866L30.5039 12.8638ZM28 12C28.0032 12 28.0031 12.0003 28.0012 11.9998C27.9997 11.9994 27.9987 11.9989 27.9985 11.9988C27.9985 11.9988 27.9992 11.9992 28 12C28.0009 12.0009 28.0013 12.0015 28.0012 12.0015L31.4622 9.99612C30.7733 8.80707 29.4821 8 28 8V12ZM8 12H28V8H8V12ZM7.99878 12.0015C7.99874 12.0015 7.9991 12.0009 7.99997 12C8.00084 11.9992 8.00147 11.9988 8.00146 11.9988C8.00129 11.9989 8.00033 11.9994 7.99878 11.9998C7.99688 12.0003 7.99679 12 8 12V8C6.51793 8 5.2267 8.80707 4.53776 9.99612L7.99878 12.0015ZM28.9923 11.4301L18.5039 17.5484L20.5194 21.0035L31.0077 14.8853L28.9923 11.4301ZM18.5039 17.5484C18.1925 17.73 17.8075 17.73 17.4961 17.5484L15.4806 21.0035C17.0375 21.9116 18.9625 21.9116 20.5194 21.0035L18.5039 17.5484ZM17.4961 17.5484L7.00774 11.4301L4.99226 14.8853L15.4806 21.0035L17.4961 17.5484ZM8 24V13.1577H4V24H8ZM8 24H8H4C4 26.2091 5.79086 28 8 28V24ZM28 24H8V28H28V24ZM28 24V28C30.2091 28 32 26.2091 32 24H28ZM28 13.1577V24H32V13.1577H28Z" fill="currentColor" mask="url(#path-2-inside-1_1922_18639)"/>
</svg>
