<svg fill="none" xmlns="http://www.w3.org/2000/svg" width="20" height="20" viewBox="0 0 20 20">
    <path fill-rule="evenodd" clip-rule="evenodd" d="M10 3.333a6.667 6.667 0 1 0 0 13.334 6.667 6.667 0 0 0 0-13.334ZM1.667 10a8.333 8.333 0 1 1 16.667 0 8.333 8.333 0 0 1-16.667 0Z" fill="currentColor"/>
    <path fill-rule="evenodd" clip-rule="evenodd" d="M13.867 7.277a.833.833 0 0 0-1.174.106l-2.998 3.598c-.289.347-.451.539-.58.657a.37.37 0 0 0-.006.004l-.005-.004c-.14-.105-.32-.282-.638-.601l-1.21-1.21a.833.833 0 0 0-1.178 1.179l1.21 1.21.033.034c.272.272.534.534.778.718.272.206.63.4 1.088.38.457-.022.796-.247 1.049-.477.225-.206.462-.49.709-.786l.03-.037 2.999-3.598a.833.833 0 0 0-.107-1.173Z" fill="currentColor"/>
</svg>