<svg width="20" height="20" fill="none" xmlns="http://www.w3.org/2000/svg">
  <path fill-rule="evenodd" clip-rule="evenodd" d="M10 3.334a6.667 6.667 0 1 0 0 13.333 6.667 6.667 0 0 0 0-13.333ZM1.667 10a8.333 8.333 0 1 1 16.667 0 8.333 8.333 0 0 1-16.667 0Z" fill="currentColor"/>
  <path fill-rule="evenodd" clip-rule="evenodd" d="M13.867 7.276a.833.833 0 0 0-1.174.107L9.695 10.98c-.289.347-.451.539-.58.656l-.006.005-.005-.004c-.14-.106-.32-.282-.638-.601l-1.21-1.21a.833.833 0 0 0-1.178 1.179l1.21 1.21.033.033c.272.272.534.534.778.718.272.207.63.4 1.088.38.457-.021.796-.246 1.049-.477.225-.205.462-.49.709-.785l.03-.037 2.999-3.598a.833.833 0 0 0-.107-1.174Z" fill="currentColor"/>
</svg>
