<svg width="22" height="22" viewBox="0 0 22 22" fill="none" xmlns="http://www.w3.org/2000/svg">
<path fill-rule="evenodd" clip-rule="evenodd" d="M6.64669 3.80371H15.353C16.34 3.8037 17.1214 3.80399 17.733 3.89001C18.3637 3.97873 18.8743 4.16551 19.2775 4.58733C19.6815 5.01002 19.8612 5.54669 19.9464 6.2096C20.0199 6.78134 20.0281 7.49557 20.0289 8.37726L20.029 13.2972C20.029 14.3293 20.0288 15.1482 19.9464 15.7895C19.8612 16.4524 19.6815 16.9891 19.2775 17.4118C18.8743 17.8336 18.3637 18.0204 17.733 18.1091C17.1214 18.1951 16.34 18.1954 15.353 18.1954H6.64671C5.65972 18.1954 4.87837 18.1951 4.26678 18.1091C3.636 18.0204 3.12547 17.8336 2.72226 17.4118C2.31822 16.9891 2.13855 16.4524 2.05336 15.7895C1.97094 15.1482 1.97069 14.3293 1.9707 13.2972L1.9708 8.377C1.97166 7.4953 1.97988 6.78134 2.05336 6.2096C2.13855 5.54669 2.31822 5.01002 2.72226 4.58733C3.12547 4.16551 3.636 3.97873 4.26678 3.89001C4.87837 3.80399 5.65972 3.8037 6.64669 3.80371ZM11.8114 11.6024L19.2222 7.72154L19.2211 7.6371C19.2142 7.11127 19.1964 6.6837 19.1503 6.32488C19.0776 5.75874 18.9413 5.4332 18.7137 5.19507C18.4853 4.95608 18.1716 4.81236 17.6276 4.73584C17.0727 4.65779 16.3415 4.65692 15.3136 4.65692H6.68614C5.65829 4.65692 4.92706 4.65779 4.37218 4.73584C3.82812 4.81236 3.51449 4.95608 3.28604 5.19507C3.05842 5.4332 2.92217 5.75874 2.84941 6.32488C2.8033 6.6837 2.78557 7.11127 2.77862 7.6371L2.7775 7.72154L10.1883 11.6024C10.699 11.8698 11.3007 11.8698 11.8114 11.6024ZM9.81741 12.4029L2.77414 8.7146V13.256C2.77414 14.3318 2.77501 15.0953 2.84941 15.6742C2.92217 16.2404 3.05842 16.5659 3.28604 16.804C3.51449 17.043 3.82812 17.1867 4.37218 17.2633C4.92706 17.3413 5.65829 17.3422 6.68614 17.3422H15.3136C16.3415 17.3422 17.0727 17.3413 17.6276 17.2633C18.1716 17.1867 18.4853 17.043 18.7137 16.804C18.9413 16.5659 19.0776 16.2404 19.1503 15.6742C19.2247 15.0953 19.2256 14.3318 19.2256 13.256V8.7146L12.1823 12.4029C11.4378 12.7929 10.562 12.7929 9.81741 12.4029Z" fill="currentColor"/>
</svg>
