<svg width="16" height="16" viewBox="0 0 16 16" fill="none" xmlns="http://www.w3.org/2000/svg">
  <path fill-rule="evenodd" clip-rule="evenodd" d="M15.5008 8.00041C15.5008 12.1428 12.1428 15.5008 8.00041 15.5008C3.85805 15.5008 0.5 12.1428 0.5 8.00041C0.5 3.85805 3.85805 0.5 8.00041 0.5C12.1428 0.5 15.5008 3.85805 15.5008 8.00041ZM10.9471 5.1844C11.2726 5.50986 11.2726 6.03752 10.9471 6.36298L9.1779 8.13222L10.9455 9.89979C11.2709 10.2252 11.2709 10.7529 10.9455 11.0784C10.62 11.4038 10.0924 11.4038 9.7669 11.0784L7.99932 9.31079L6.23064 11.0795C5.90518 11.4049 5.37752 11.4049 5.05206 11.0795C4.72661 10.754 4.72661 10.2264 5.05206 9.9009L6.82075 8.13222L5.05313 6.36461C4.72768 6.03915 4.72768 5.51149 5.05313 5.18603C5.37859 4.86058 5.90626 4.86058 6.23171 5.18603L7.99932 6.95364L9.76856 5.1844C10.094 4.85895 10.6217 4.85895 10.9471 5.1844Z" fill="currentColor"/>
</svg>
