<svg width="36" height="36" viewBox="0 0 36 36" fill="none" xmlns="http://www.w3.org/2000/svg">
<path d="M9 10.95C8.4201 10.95 7.95 11.4201 7.95 12C7.95 12.5799 8.4201 13.05 9 13.05V10.95ZM27 13.05C27.5799 13.05 28.05 12.5799 28.05 12C28.05 11.4201 27.5799 10.95 27 10.95V13.05ZM9 13.05H27V10.95H9V13.05Z" fill="currentColor"/>
<path d="M9 16.95C8.4201 16.95 7.95 17.4201 7.95 18C7.95 18.5799 8.4201 19.05 9 19.05V16.95ZM27 19.05C27.5799 19.05 28.05 18.5799 28.05 18C28.05 17.4201 27.5799 16.95 27 16.95V19.05ZM9 19.05H27V16.95H9V19.05Z" fill="currentColor"/>
<path d="M9 22.95C8.4201 22.95 7.95 23.4201 7.95 24C7.95 24.5799 8.4201 25.05 9 25.05V22.95ZM27 25.05C27.5799 25.05 28.05 24.5799 28.05 24C28.05 23.4201 27.5799 22.95 27 22.95V25.05ZM9 25.05H27V22.95H9V25.05Z" fill="currentColor"/>
</svg>
