<svg width="36" height="36" viewBox="0 0 36 36" fill="none" xmlns="http://www.w3.org/2000/svg">
<path d="M9 16.7039C9 14.7484 9.02286 14.0916 9.29385 13.5262C9.56768 12.9549 10.0823 12.5031 11.6284 11.2314L13.057 10.0564C14.4075 8.9456 15.3507 8.17215 16.1499 7.66567C16.9248 7.17458 17.4666 7 18 7C18.5334 7 19.0752 7.17458 19.8501 7.66567C20.6493 8.17215 21.5925 8.9456 22.943 10.0564L24.3716 11.2314C25.9177 12.5031 26.4323 12.9549 26.7061 13.5262C26.9771 14.0916 27 14.7484 27 16.7039V22.5167C27 23.8386 26.9977 24.7252 26.9051 25.3863C26.8171 26.0143 26.6653 26.2888 26.4708 26.4755C26.2705 26.6676 25.9673 26.8208 25.2928 26.9078C24.5937 26.998 23.6597 27 22.2857 27H13.7143C12.3403 27 11.4063 26.998 10.7072 26.9078C10.0327 26.8208 9.7295 26.6676 9.52921 26.4755C9.33471 26.2888 9.18292 26.0143 9.09493 25.3863C9.0023 24.7252 9 23.8386 9 22.5167V16.7039Z" stroke="currentColor" stroke-width="2"/>
<path d="M21 27V20C21 18.8954 20.1046 18 19 18H17C15.8954 18 15 18.8954 15 20V27" stroke="currentColor" stroke-width="2" stroke-linecap="square" stroke-linejoin="round"/>
</svg>
