<svg width="36" height="36" viewBox="0 0 36 36" fill="none" xmlns="http://www.w3.org/2000/svg">
<path fill-rule="evenodd" clip-rule="evenodd" d="M8.39209 13.094C8 13.912 8 14.8426 8 16.7039V22.5167C8 25.1016 8 26.394 8.83684 27.197C9.67368 28 11.0205 28 13.7143 28H14V27V20C14 18.3431 15.3431 17 17 17H19C20.6569 17 22 18.3431 22 20V27V28H22.2857C24.9795 28 26.3263 28 27.1632 27.197C28 26.394 28 25.1016 28 22.5167V22.5167V16.7039C28 14.8426 28 13.912 27.6079 13.094C27.2158 12.276 26.4795 11.6703 25.0068 10.4591L23.5782 9.28407C20.9163 7.09469 19.5854 6 18 6C16.4146 6 15.0837 7.09469 12.4218 9.28407L10.9932 10.4591L10.9932 10.4591C9.52052 11.6703 8.78417 12.276 8.39209 13.094ZM20 28V27V20C20 19.4477 19.5523 19 19 19H17C16.4477 19 16 19.4477 16 20V27V28H20Z" fill="currentColor"/>
</svg>
