<svg width="16" height="20" viewBox="0 0 16 20" fill="none" xmlns="http://www.w3.org/2000/svg">
  <path d="M3.3732 6.64118C3.63516 4.2836 5.62791 2.5 8 2.5V2.5C10.3721 2.5 12.3648 4.2836 12.6268 6.64118L12.8366 8.5297C12.9443 9.4985 13.2596 10.4327 13.7611 11.2685L14.2428 12.0714C14.5455 12.5759 14.6969 12.8281 14.7246 13.0315C14.7854 13.4772 14.5412 13.9087 14.1277 14.0858C13.939 14.1667 13.6448 14.1667 13.0565 14.1667H2.94353C2.35515 14.1667 2.06097 14.1667 1.87233 14.0858C1.45885 13.9087 1.21456 13.4772 1.27537 13.0315C1.30311 12.8281 1.45447 12.5759 1.75718 12.0714L2.23888 11.2685C2.74039 10.4327 3.05572 9.4985 3.16337 8.5297L3.3732 6.64118Z" stroke="currentColor" stroke-width="1.66676"/>
  <path d="M5.58518 14.7206C5.72762 15.5179 6.04148 16.2225 6.4781 16.7251C6.91471 17.2276 7.44966 17.5 8 17.5C8.55033 17.5 9.08529 17.2276 9.5219 16.7251C9.95851 16.2225 10.2724 15.5179 10.4148 14.7206" stroke="currentColor" stroke-width="1.66676" stroke-linecap="round"/>
</svg>
