<svg width="36" height="36" viewBox="0 0 36 36" fill="none" xmlns="http://www.w3.org/2000/svg">
<mask id="path-2-inside-1_1922_18643" fill="white">
<path fill-rule="evenodd" clip-rule="evenodd" d="M8.58579 8.58579C8 9.17157 8 10.1144 8 12V24C8 25.8856 8 26.8284 8.58579 27.4142C9.17157 28 10.1144 28 12 28H24C25.8856 28 26.8284 28 27.4142 27.4142C28 26.8284 28 25.8856 28 24V12C28 10.1144 28 9.17157 27.4142 8.58579C26.8284 8 25.8856 8 24 8H12C10.1144 8 9.17157 8 8.58579 8.58579ZM22 13C22.5523 13 23 13.4477 23 14V22C23 22.5523 22.5523 23 22 23C21.4477 23 21 22.5523 21 22V14C21 13.4477 21.4477 13 22 13ZM15 17C15 16.4477 14.5523 16 14 16C13.4477 16 13 16.4477 13 17V22C13 22.5523 13.4477 23 14 23C14.5523 23 15 22.5523 15 22V17ZM19 18C19 17.4477 18.5523 17 18 17C17.4477 17 17 17.4477 17 18V22C17 22.5523 17.4477 23 18 23C18.5523 23 19 22.5523 19 22V18Z"/>
</mask>
<path fill-rule="evenodd" clip-rule="evenodd" d="M8.58579 8.58579C8 9.17157 8 10.1144 8 12V24C8 25.8856 8 26.8284 8.58579 27.4142C9.17157 28 10.1144 28 12 28H24C25.8856 28 26.8284 28 27.4142 27.4142C28 26.8284 28 25.8856 28 24V12C28 10.1144 28 9.17157 27.4142 8.58579C26.8284 8 25.8856 8 24 8H12C10.1144 8 9.17157 8 8.58579 8.58579ZM22 13C22.5523 13 23 13.4477 23 14V22C23 22.5523 22.5523 23 22 23C21.4477 23 21 22.5523 21 22V14C21 13.4477 21.4477 13 22 13ZM15 17C15 16.4477 14.5523 16 14 16C13.4477 16 13 16.4477 13 17V22C13 22.5523 13.4477 23 14 23C14.5523 23 15 22.5523 15 22V17ZM19 18C19 17.4477 18.5523 17 18 17C17.4477 17 17 17.4477 17 18V22C17 22.5523 17.4477 23 18 23C18.5523 23 19 22.5523 19 22V18Z" fill="currentColor"/>
<path d="M13 22H11V22L13 22ZM15 22H13V22L15 22ZM10 12C10 11.0007 10.0042 10.4523 10.0554 10.072C10.0988 9.7491 10.1406 9.85936 10 10L7.17157 7.17157C6.44514 7.898 6.1941 8.77256 6.09106 9.53896C5.99575 10.2478 6 11.1137 6 12H10ZM10 24V12H6V24H10ZM10 26C10.1406 26.1406 10.0988 26.2509 10.0554 25.928C10.0042 25.5477 10 24.9993 10 24H6C6 24.8863 5.99575 25.7522 6.09106 26.461C6.1941 27.2274 6.44514 28.102 7.17157 28.8284L10 26ZM12 26C11.0007 26 10.4523 25.9958 10.072 25.9446C9.7491 25.9012 9.85936 25.8594 10 26L7.17157 28.8284C7.898 29.5549 8.77256 29.8059 9.53896 29.9089C10.2478 30.0042 11.1137 30 12 30V26ZM24 26H12V30H24V26ZM26 26C26.1406 25.8594 26.2509 25.9012 25.928 25.9446C25.5477 25.9958 24.9993 26 24 26V30C24.8863 30 25.7522 30.0042 26.461 29.9089C27.2274 29.8059 28.102 29.5549 28.8284 28.8284L26 26ZM26 24C26 24.9993 25.9958 25.5477 25.9446 25.928C25.9012 26.2509 25.8594 26.1406 26 26L28.8284 28.8284C29.5549 28.102 29.8059 27.2274 29.9089 26.461C30.0042 25.7522 30 24.8863 30 24H26ZM26 12V24H30V12H26ZM26 10C25.8594 9.85936 25.9012 9.7491 25.9446 10.072C25.9958 10.4523 26 11.0007 26 12H30C30 11.1137 30.0042 10.2478 29.9089 9.53896C29.8059 8.77256 29.5549 7.898 28.8284 7.17157L26 10ZM24 10C24.9993 10 25.5477 10.0042 25.928 10.0554C26.2509 10.0988 26.1406 10.1406 26 10L28.8284 7.17157C28.102 6.44514 27.2274 6.1941 26.461 6.09106C25.7522 5.99575 24.8863 6 24 6V10ZM12 10H24V6H12V10ZM10 10C9.85936 10.1406 9.7491 10.0988 10.072 10.0554C10.4523 10.0042 11.0007 10 12 10V6C11.1137 6 10.2478 5.99575 9.53896 6.09106C8.77256 6.1941 7.898 6.44514 7.17157 7.17157L10 10ZM25 14C25 12.3431 23.6569 11 22 11V15C21.4477 15 21 14.5523 21 14H25ZM25 22V14H21V22H25ZM22 25C23.6569 25 25 23.6569 25 22H21C21 21.4477 21.4477 21 22 21V25ZM19 22C19 23.6569 20.3431 25 22 25V21C22.5523 21 23 21.4477 23 22H19ZM19 14V22H23V14H19ZM22 11C20.3431 11 19 12.3431 19 14H23C23 14.5523 22.5523 15 22 15V11ZM14 18C13.4477 18 13 17.5523 13 17H17C17 15.3431 15.6569 14 14 14V18ZM15 17C15 17.5523 14.5523 18 14 18V14C12.3431 14 11 15.3431 11 17H15ZM15 22V17H11V22H15ZM14 21C14.5523 21 15 21.4477 15 22L11 22C11 23.6569 12.3431 25 14 25V21ZM13 22C13 21.4477 13.4477 21 14 21V25C15.6569 25 17 23.6569 17 22L13 22ZM13 17V22H17V17H13ZM18 19C17.4477 19 17 18.5523 17 18H21C21 16.3431 19.6569 15 18 15V19ZM19 18C19 18.5523 18.5523 19 18 19V15C16.3431 15 15 16.3431 15 18H19ZM19 22V18H15V22H19ZM18 21C18.5523 21 19 21.4477 19 22H15C15 23.6569 16.3431 25 18 25V21ZM17 22C17 21.4477 17.4477 21 18 21V25C19.6569 25 21 23.6569 21 22H17ZM17 18V22H21V18H17Z" fill="currentColor" mask="url(#path-2-inside-1_1922_18643)"/>
</svg>
