<svg width="36" height="36" viewBox="0 0 36 36" fill="none" xmlns="http://www.w3.org/2000/svg">
<circle cx="18.3313" cy="17.9353" r="10.9587" stroke="currentColor" stroke-width="2"/>
<circle cx="18.3237" cy="17.9451" r="6.64491" stroke="currentColor" stroke-width="0.8"/>
<path d="M24.5712 14.617C26.1936 18.201 26.3217 25.5532 22.7378 27.1755C19.1538 28.7978 13.7141 23.85 12.0918 20.2661" stroke="currentColor" stroke-width="0.8"/>
<path d="M14.2487 23.3667C11.2116 20.8662 7.85273 14.3249 10.3532 11.2877C12.8537 8.25058 19.9183 10.2908 22.9554 12.7912" stroke="currentColor" stroke-width="0.8"/>
<path d="M12.0919 14.617C10.4695 18.201 10.3414 25.5532 13.9253 27.1755C17.5093 28.7978 22.9489 23.85 24.5713 20.2661" stroke="currentColor" stroke-width="0.8"/>
<path d="M20.2307 24.616C16.3913 25.4734 9.16746 24.0995 8.31009 20.26C7.45271 16.4206 13.4059 12.1042 17.2453 11.2468" stroke="currentColor" stroke-width="0.8"/>
<path d="M16.3048 24.6027C20.1352 25.4994 27.3728 24.1996 28.2694 20.3691C29.1661 16.5387 23.2575 12.1615 19.427 11.2648" stroke="currentColor" stroke-width="0.8"/>
<path d="M22.2257 23.5578C25.2629 21.0573 28.6357 14.5329 26.154 11.5186C23.6724 8.50438 16.6218 10.5615 13.5846 13.062" stroke="currentColor" stroke-width="0.8"/>
<path d="M11.4832 18.2194C11.4832 14.2854 14.3984 7.53467 18.3324 7.53467C22.2665 7.53467 25.1816 14.2854 25.1816 18.2194" stroke="currentColor" stroke-width="0.8"/>
</svg>
