<svg width="36" height="36" viewBox="0 0 36 36" fill="none" xmlns="http://www.w3.org/2000/svg">
<circle cx="17.5938" cy="17.933" r="10.9566" stroke="currentColor" stroke-width="2"/>
<circle cx="17.586" cy="17.943" r="6.64355" stroke="currentColor" stroke-width="0.8"/>
<path d="M23.8329 14.6154C25.4549 18.1986 25.583 25.5494 21.9997 27.1714C18.4165 28.7934 12.9779 23.8465 11.3558 20.2633" stroke="currentColor" stroke-width="0.8"/>
<path d="M13.512 23.3633C10.4754 20.8634 7.11723 14.3233 9.61721 11.2867C12.1172 8.25015 19.1804 10.2899 22.217 12.7899" stroke="currentColor" stroke-width="0.8"/>
<path d="M11.3551 14.6154C9.73312 18.1986 9.60501 25.5494 13.1883 27.1714C16.7715 28.7934 22.2101 23.8465 23.8321 20.2633" stroke="currentColor" stroke-width="0.8"/>
<path d="M19.4923 24.6126C15.6536 25.4698 8.43117 24.0962 7.57396 20.2575C6.71675 16.4188 12.6688 12.1033 16.5075 11.2461" stroke="currentColor" stroke-width="0.8"/>
<path d="M15.5671 24.5994C19.3969 25.4959 26.633 24.1964 27.5295 20.3666C28.426 16.5369 22.5185 12.1606 18.6888 11.2641" stroke="currentColor" stroke-width="0.8"/>
<path d="M21.4879 23.5544C24.5244 21.0544 27.8966 14.5313 25.4154 11.5176C22.9343 8.50395 15.885 10.5607 12.8484 13.0607" stroke="currentColor" stroke-width="0.8"/>
<path d="M10.7471 18.2171C10.7471 14.2839 13.6617 7.53442 17.595 7.53442C21.5282 7.53442 24.4429 14.2839 24.4429 18.2171" stroke="currentColor" stroke-width="0.8"/>
</svg>
