<svg width="12" height="18" viewBox="0 0 12 18" fill="currentColor" xmlns="http://www.w3.org/2000/svg">
<path d="M10.1637 15.5102L11.0356 15.0205L10.1637 15.5102ZM9.57805 16.9582L9.29185 16L9.57805 16.9582ZM9.43887 3.249L10.1341 3.9678L9.43887 3.249ZM10.1637 2.48976L11.0356 2.97952L10.1637 2.48976ZM9.57805 1.04183L9.29185 2L9.57805 1.04183ZM8 9C8 7.02458 8.81696 5.24172 10.1341 3.9678L8.74366 2.5302C7.05306 4.16533 6 6.46056 6 9H8ZM10.1341 14.0322C8.81696 12.7583 8 10.9754 8 9H6C6 11.5394 7.05306 13.8347 8.74366 15.4698L10.1341 14.0322ZM9 16C5.13401 16 2 12.866 2 9H0C0 13.9706 4.02944 18 9 18V16ZM2 9C2 5.13401 5.13401 2 9 2V0C4.02944 0 0 4.02944 0 9H2ZM8.74366 15.4698C8.9664 15.6852 9.11624 15.8303 9.22064 15.9377C9.27192 15.9905 9.30117 16.0229 9.3168 16.0415C9.33558 16.0638 9.31786 16.0463 9.29185 16L11.0356 15.0205C10.9274 14.828 10.7656 14.6578 10.6549 14.5438C10.5236 14.4088 10.3468 14.238 10.1341 14.0322L8.74366 15.4698ZM9 18C9.23607 18 9.55235 18.0095 9.86425 17.9163L9.29185 16C9.3199 15.9916 9.33074 15.994 9.28833 15.9964C9.2332 15.9996 9.15692 16 9 16V18ZM9.29185 16L9.86425 17.9163C11.0923 17.5495 11.6633 16.1379 11.0356 15.0205L9.29185 16ZM10.1341 3.9678C10.3468 3.76203 10.5236 3.59121 10.6549 3.45617C10.7656 3.34225 10.9274 3.17203 11.0356 2.97952L9.29185 2C9.31786 1.95369 9.33559 1.93623 9.3168 1.95852C9.30118 1.97707 9.27192 2.0095 9.22064 2.06226C9.11624 2.16969 8.9664 2.31477 8.74366 2.5302L10.1341 3.9678ZM9 2C9.15692 2 9.2332 2.00038 9.28833 2.00356C9.33074 2.00601 9.3199 2.00838 9.29185 2L9.86425 0.0836619C9.55235 -0.00950444 9.23607 0 9 0V2ZM11.0356 2.97952C11.6633 1.86207 11.0923 0.450487 9.86425 0.0836619L9.29185 2L11.0356 2.97952Z" fill="inherit"/>
</svg>
