<svg width="113" height="113" viewBox="0 0 113 113" fill="none" xmlns="http://www.w3.org/2000/svg">
    <path d="M27.8208 13.817C28.0449 12.8121 29.0411 12.1792 30.046 12.4033L99.183 27.8209C100.188 28.045 100.821 29.0412 100.597 30.046L85.179 99.183C84.955 100.188 83.9587 100.821 82.9539 100.597L13.8169 85.1791C12.8121 84.955 12.1792 83.9588 12.4032 82.954L27.8208 13.817Z" fill="#DEE7FA"/>
    <path fill-rule="evenodd" clip-rule="evenodd" d="M14.1391 74.431L24.3827 28.4958L68.096 20.7581L80.8651 23.6056L90.1592 76.1119L86.337 93.2518L66.4151 96.7782L16.109 85.5599L14.1391 74.431Z" fill="#C9DAFF"/>
    <path d="M4.6921 37.213C4.51265 36.1992 5.18899 35.232 6.20274 35.0525L75.9537 22.706C76.9674 22.5265 77.9347 23.2029 78.1141 24.2166L90.4607 93.9676C90.6401 94.9813 89.9638 95.9486 88.95 96.128L19.1991 108.475C18.1854 108.654 17.2181 107.978 17.0386 106.964L4.6921 37.213Z" fill="#DEE7FA"/>
    <path d="M14.9577 52.4332C14.7783 51.4195 15.4546 50.4522 16.4684 50.2727L71.5349 40.5255C72.5486 40.346 73.5159 41.0224 73.6954 42.0361L78.569 69.5694C78.7484 70.5831 78.0721 71.5504 77.0583 71.7298L21.9918 81.4771C20.9781 81.6566 20.0108 80.9802 19.8314 79.9665L14.9577 52.4332Z" fill="#1186FA"/>
    <path d="M18.596 40.9041C18.5063 40.3972 18.8445 39.9136 19.3514 39.8239L40.4602 36.0874C40.9671 35.9977 41.4507 36.3359 41.5404 36.8427L41.8653 38.6783C41.9551 39.1852 41.6169 39.6688 41.11 39.7585L20.0012 43.495C19.4943 43.5847 19.0107 43.2465 18.921 42.7397L18.596 40.9041Z" fill="white"/>
    <path d="M21.4554 89.1443C21.3657 88.6375 21.7039 88.1538 22.2107 88.0641L48.8262 83.3529C49.3331 83.2632 49.8167 83.6014 49.9065 84.1082L50.2314 85.9438C50.3211 86.4507 49.9829 86.9343 49.476 87.024L22.8606 91.7352C22.3537 91.8249 21.8701 91.4868 21.7803 90.9799L21.4554 89.1443Z" fill="white"/>
    <path d="M22.6742 96.0276C22.5845 95.5208 22.9226 95.0371 23.4295 94.9474L80.3316 84.8752C80.8384 84.7855 81.3221 85.1237 81.4118 85.6305L81.7367 87.4661C81.8264 87.973 81.4883 88.4566 80.9814 88.5463L24.0793 98.6185C23.5724 98.7082 23.0888 98.3701 22.9991 97.8632L22.6742 96.0276Z" fill="white"/>
    <path d="M16.9218 42.1467C17.1012 43.1604 16.4249 44.1277 15.4112 44.3071C14.3974 44.4866 13.4301 43.8102 13.2507 42.7965C13.0712 41.7827 13.7476 40.8155 14.7613 40.636C15.7751 40.4566 16.7423 41.1329 16.9218 42.1467Z" fill="white"/>
    <path d="M53.518 64.1896C54.9335 61.4831 58.5263 60.8472 60.7848 62.9033L71.5506 72.7044L46.7707 77.0907L53.518 64.1896Z" fill="#205CDF"/>
    <path d="M53.3841 52.9669C53.6757 54.6142 52.5767 56.186 50.9294 56.4776C49.282 56.7692 47.7102 55.6701 47.4186 54.0228C47.127 52.3755 48.2261 50.8037 49.8734 50.5121C51.5207 50.2205 53.0926 51.3195 53.3841 52.9669Z" fill="#5CADFD"/>
    <path d="M36.4805 61.5738C37.8927 58.8507 41.5053 58.2113 43.7665 60.2841L59.6192 74.8164L26.5793 80.6648L36.4805 61.5738Z" fill="#5CADFD"/>
    <path d="M101.126 92.9714C101.126 99.5345 95.806 104.855 89.2429 104.855C82.6798 104.855 77.3594 99.5345 77.3594 92.9714C77.3594 86.4083 82.6798 81.0879 89.2429 81.0879C95.806 81.0879 101.126 86.4083 101.126 92.9714Z" fill="#1186FA"/>
    <path d="M94.1925 88.5859L84.8555 97.923" stroke="white" stroke-width="3" stroke-linecap="round" stroke-linejoin="round"/>
    <path d="M84.8543 88.5859L94.1914 97.923" stroke="white" stroke-width="3" stroke-linecap="round" stroke-linejoin="round"/>
</svg>
