<svg width="20" height="20" fill="none" xmlns="http://www.w3.org/2000/svg">
  <path d="M12.917 3.75c1.17 0 1.755 0 2.176.28.182.122.338.279.46.46.28.421.28 1.006.28 2.177v7.916c0 1.572 0 2.357-.488 2.845-.488.489-1.274.489-2.845.489h-5c-1.571 0-2.357 0-2.845-.489-.488-.488-.488-1.273-.488-2.845V6.667c0-1.17 0-1.756.28-2.176.122-.182.278-.339.46-.46.42-.281 1.006-.281 2.176-.281" stroke="currentColor" stroke-width="1.75"/>
  <path d="M7.5 3.75c0-.92.746-1.667 1.667-1.667h1.666a1.667 1.667 0 1 1 0 3.334H9.167c-.92 0-1.667-.747-1.667-1.667Z" stroke="currentColor" stroke-width="1.75"/>
  <path d="M7.5 9.583h5M7.5 12.917h3.333" stroke="currentColor" stroke-width="1.75" stroke-linecap="round"/>
</svg>
