<svg width="20" height="20" viewBox="0 0 20 20" fill="none" xmlns="http://www.w3.org/2000/svg">
<path d="M3.33325 11.5C3.33325 9.61438 3.33325 8.67157 3.91904 8.08579C4.50482 7.5 5.44763 7.5 7.33325 7.5H12.6666C14.5522 7.5 15.495 7.5 16.0808 8.08579C16.6666 8.67157 16.6666 9.61438 16.6666 11.5V11.5C16.6666 14.3284 16.6666 15.7426 15.7879 16.6213C14.9092 17.5 13.495 17.5 10.6666 17.5H9.33325C6.50482 17.5 5.09061 17.5 4.21193 16.6213C3.33325 15.7426 3.33325 14.3284 3.33325 11.5V11.5Z" stroke="currentColor" stroke-width="1.5"/>
<path d="M13.3332 6.66667V5.83333C13.3332 3.99239 11.8408 2.5 9.99984 2.5V2.5C8.15889 2.5 6.6665 3.99239 6.6665 5.83333V6.66667" stroke="currentColor" stroke-width="1.5" stroke-linecap="round"/>
<circle cx="9.99992" cy="12.4997" r="1.66667" fill="currentColor"/>
</svg>
