<svg width="28" height="28" viewBox="0 0 28 28" fill="none" xmlns="http://www.w3.org/2000/svg">
  <path fill-rule="evenodd" clip-rule="evenodd" d="M7.736 19.102C9.56 18.052 11.761 17.5 14 17.5c2.24 0 4.44.553 6.264 1.602 1.822 1.049 3.208 2.563 3.85 4.36a1.167 1.167 0 1 1-2.197.785c-.422-1.18-1.38-2.295-2.817-3.123-1.437-.826-3.23-1.29-5.1-1.29-1.87 0-3.663.463-5.1 1.29-1.437.828-2.395 1.944-2.816 3.123a1.167 1.167 0 1 1-2.198-.785c.642-1.797 2.028-3.311 3.85-4.36ZM14 5.833a3.5 3.5 0 1 0 0 7 3.5 3.5 0 0 0 0-7Zm-5.834 3.5a5.833 5.833 0 1 1 11.667 0 5.833 5.833 0 0 1-11.666 0Z" />
</svg>
