<svg width="24" height="24" viewBox="0 0 24 24" fill="none" xmlns="http://www.w3.org/2000/svg">
<path d="M23.904 8.66153C23.6787 8.06139 23.1017 7.66264 22.4558 7.66075H16.1857C15.9671 7.6609 15.7721 7.52415 15.6995 7.31966L13.4488 0.995335C13.2231 0.396744 12.6462 0 12.0016 0C11.357 0 10.7801 0.396744 10.5543 0.995335L10.5492 1.01167L8.30361 7.31966C8.23114 7.5238 8.03674 7.66047 7.81845 7.66075H1.54635C0.896006 7.66026 0.314975 8.06355 0.0929285 8.66955C-0.129118 9.27555 0.0553596 9.95452 0.554389 10.368L5.89428 14.7591C6.05776 14.8936 6.12117 15.1139 6.05394 15.3137L3.81044 21.9832C3.59769 22.6159 3.8224 23.3124 4.36606 23.7054C4.90972 24.0983 5.64735 24.0973 6.18991 23.7029L11.6967 19.6997C11.8779 19.5681 12.1242 19.5681 12.3054 19.6997L17.8101 23.7018C18.3525 24.0976 19.0909 24.0995 19.6354 23.7066C20.1799 23.3137 20.4049 22.6164 20.1917 21.9832L17.9482 15.3096C17.8809 15.1098 17.9443 14.8896 18.1078 14.7551L23.458 10.3577C23.9506 9.94088 24.1286 9.26373 23.904 8.66153Z" fill="currentColor"/>
</svg>
