<svg width="36" height="36" viewBox="0 0 36 36" fill="none" xmlns="http://www.w3.org/2000/svg">
<path d="M9.0498 30.375H6.875C6.37772 30.375 5.90081 30.1775 5.54917 29.8258C5.19754 29.4742 5 28.9973 5 28.5V7.875C5 7.37772 5.19754 6.90081 5.54917 6.54917C5.90081 6.19754 6.37772 6 6.875 6H29.375C29.8723 6 30.3492 6.19754 30.7008 6.54917C31.0524 6.90081 31.25 7.37772 31.25 7.875V28.375C31.25 29.4796 30.3546 30.375 29.25 30.375H26.5498M5 11.6253H31.25" stroke="#1859A9" stroke-width="2" stroke-linecap="round" stroke-linejoin="round"/>
<path d="M14.1162 19.8085C14.1162 20.301 14.2132 20.7886 14.4017 21.2436C14.5901 21.6986 14.8663 22.112 15.2146 22.4602C15.5628 22.8084 15.9762 23.0846 16.4311 23.2731C16.8861 23.4615 17.3738 23.5585 17.8662 23.5585C18.3587 23.5585 18.8463 23.4615 19.3013 23.2731C19.7562 23.0846 20.1696 22.8084 20.5179 22.4602C20.8661 22.112 21.1423 21.6986 21.3308 21.2436C21.5192 20.7886 21.6162 20.301 21.6162 19.8085C21.6162 19.3161 21.5192 18.8284 21.3308 18.3735C21.1423 17.9185 20.8661 17.5051 20.5179 17.1569C20.1696 16.8087 19.7562 16.5324 19.3013 16.344C18.8463 16.1555 18.3587 16.0585 17.8662 16.0585C17.3738 16.0585 16.8861 16.1555 16.4311 16.344C15.9762 16.5324 15.5628 16.8087 15.2146 17.1569C14.8663 17.5051 14.5901 17.9185 14.4017 18.3735C14.2132 18.8284 14.1162 19.3161 14.1162 19.8085Z" stroke="#089BD7" stroke-width="2" stroke-linecap="round" stroke-linejoin="round"/>
<path d="M23.4923 29.1835C23.1677 27.8918 22.4363 26.7387 21.406 25.8946C20.3758 25.0506 19.1014 24.5602 17.7711 24.496C16.4407 24.5602 15.1663 25.0506 14.1361 25.8946C13.1058 26.7387 12.3744 27.8918 12.0498 29.1835" stroke="#089BD7" stroke-width="2" stroke-linecap="round" stroke-linejoin="round"/>
</svg>
