<svg width="20" height="20" fill="none" xmlns="http://www.w3.org/2000/svg">
  <path d="m3.333 6.667-.707.707-.707-.707.707-.707.707.707ZM7.5 16.833a1 1 0 1 1 0-2v2Zm-.707-5.293L2.626 7.374 4.04 5.96l4.167 4.166-1.414 1.414ZM2.626 5.96l4.167-4.167 1.414 1.414L4.04 7.374 2.626 5.96Zm.707-.293h8.75v2h-8.75v-2Zm8.75 11.166H7.5v-2h4.583v2Zm5.584-5.583c0 3.084-2.5 5.583-5.584 5.583v-2a3.583 3.583 0 0 0 3.584-3.583h2Zm-5.584-5.583c3.084 0 5.584 2.5 5.584 5.583h-2a3.583 3.583 0 0 0-3.584-3.583v-2Z" fill="currentColor"/>
</svg>
