<svg width="36" height="36" viewBox="0 0 36 36" fill="none" xmlns="http://www.w3.org/2000/svg"><path d="m3 5 2 2.554v6.03c-.053 2.28 2.557 4.32 5 6.416M9.264 12.023l2.17 2.474c.138.157.3.282.481.368a1.366 1.366 0 0 0 1.144.017 1.49 1.49 0 0 0 .49-.354 1.68 1.68 0 0 0 .33-.535 1.825 1.825 0 0 0 .015-1.273 1.694 1.694 0 0 0-.318-.544L10.2 8.343V6.345A9.16 9.16 0 0 0 9 3M10 13v16.017c0 .526.21 1.03.586 1.402.375.372.884.581 1.414.581h10M33 31.038l-1.978-2.534V22.52c.046-1.955-1.874-3.733-3.957-5.52v7.125l-2.308-2.4a1.595 1.595 0 0 0-1.13-.494 1.593 1.593 0 0 0-1.142.463c-.305.302-.48.715-.485 1.148-.005.433.159.85.456 1.16l3.633 3.762v1.959A8.508 8.508 0 0 0 27.38 33M19 26h-5M16 21h-2" stroke="#1859A9" stroke-width="2" stroke-linecap="round" stroke-linejoin="round"/><path d="M29 9a6 6 0 1 1-6-6" stroke="#089BD7" stroke-width="2" stroke-linecap="round" stroke-linejoin="round"/><path d="m29 4-5.3 5.766a.729.729 0 0 1-.237.173.678.678 0 0 1-.56 0 .728.728 0 0 1-.237-.173L21 7.952" stroke="#089BD7" stroke-width="2" stroke-linecap="round" stroke-linejoin="round"/></svg>
