<svg xmlns="http://www.w3.org/2000/svg" width="32" height="32" fill="none">
  <path fill="currentColor" d="m18.14 7.36.5-.05-.5.05Zm-.16-.82-.44.23.44-.23Zm.45 2.28.4-.3-.4.3Zm.93.38-.07-.5.07.5Zm1.24-.82.31.39-.31-.39Zm.69-.47.15.48-.15-.48Zm.7.03.2-.45-.2.45Zm.63.54-.35.36.35-.36Zm.9.9.35-.36-.35.36Zm.54.63.45-.2-.45.2Zm.03.7.48.16-.48-.16Zm-.47.7-.39-.32.39.31Zm-.82 1.23-.5-.07.5.07Zm.38.93-.3.4.3-.4Zm1.46.3.05-.5-.05.5Zm.82.15.23-.45-.23.45Zm.47.52.46-.19-.46.19Zm0 2.92-.46-.18.46.18Zm-.47.52.23.45-.23-.45Zm-.82.16-.05-.5h-.03l.08.5Zm0 0 .05.5h.01l.02-.01-.08-.5Zm-1.46.3-.3-.4.3.4Zm-.38.92-.5.07.5-.07Zm.82 1.24-.39.31.39-.31Zm.47.68-.48.16.48-.16Zm-.03.7-.46-.2.46.2Zm-.54.64.35.36-.35-.36Zm-.9.9-.35-.36.35.36Zm-.63.54.2.45-.2-.45Zm-.7.03-.16.48.16-.48Zm-.7-.47.32-.39-.31.39Zm0 0-.3.39.3-.4Zm-1.23-.82.07-.5-.07.5Zm-.93.38.4.3-.4-.3Zm-.3 1.46-.5-.05.5.05Zm-.15.82-.44-.23.44.23Zm-.52.47-.18-.46.18.46Zm-2.92 0 .18-.46-.18.46Zm-.52-.47.44-.23-.44.23Zm-.16-.82-.5.05.5-.05Zm-.3-1.46-.39.3.4-.3Zm-.92-.38-.07-.5.07.5Zm-1.24.82-.31-.39h-.01l-.01.02.33.37Zm0 0 .32.39V24h.01l-.33-.38Zm-.69.47.16.48-.16-.48Zm-.7-.03-.2.45.2-.45Zm-.63-.54.35-.36-.35.36Zm-.9-.9-.35.36.35-.36ZM7.94 22l.46-.2-.46.2Zm-.03-.7.48.15-.48-.15Zm.47-.7.39.32-.39-.31Zm.82-1.23.5.07-.5-.07Zm-.38-.93.3-.4-.3.4Zm-1.46-.3-.05.5.05-.5Zm-.82-.15.23-.44-.23.44Zm-.47-.52-.46.19.46-.19Zm0-2.92-.46-.19.46.19Zm.47-.52-.23-.45.23.45Zm.82-.16v-.5h-.05l.05.5Zm0 0v.5h.05l-.05-.5Zm1.46-.3-.3-.39.3.4Zm.38-.92.5-.07-.5.07Zm-.82-1.24.39-.31-.39.31Zm-.47-.69.48-.15-.48.15Zm.03-.7-.45-.2.45.2Zm.54-.63.36.35-.36-.35Zm.9-.9-.36-.35.36.35Zm.63-.54-.2-.46.2.46Zm.7-.03.16-.48-.16.48Zm.7.47.3-.39-.3.4Zm1.23.82.07-.5-.07.5Zm.93-.38-.4-.3.4.3Zm.3-1.46.5.05-.5-.05Zm.15-.82-.45-.23.45.23Zm.52-.47.18.46-.18-.46Zm2.92 0 .19-.46-.19.46Zm1.17 1.24-.06-.54c-.03-.16-.06-.3-.14-.46l-.9.46a7.97 7.97 0 0 1 .1.64l1-.1Zm.2 1.2c-.01-.01-.05-.07-.09-.29-.04-.2-.06-.49-.1-.9l-1 .1c.04.4.07.72.12.98.04.25.11.51.27.72l.8-.6Zm.46.2a.5.5 0 0 1-.46-.2l-.8.61c.33.43.86.65 1.4.58l-.14-1Zm1-.72c-.33.27-.56.45-.73.57-.18.13-.25.14-.27.15l.14.99c.26-.04.49-.17.7-.32.21-.15.47-.36.78-.61l-.63-.78Zm.84-.56c-.16.05-.3.14-.42.23l-.43.33.63.78a8.03 8.03 0 0 1 .53-.38l-.3-.96Zm1.06.06a1.5 1.5 0 0 0-1.06-.06l.3.96a.5.5 0 0 1 .36.01l.4-.91Zm.79.64c-.15-.15-.28-.28-.4-.38-.11-.1-.24-.2-.4-.26l-.4.91c.03.01.07.03.15.1l.34.34.7-.71Zm.9.9-.9-.9-.7.7.88.9.71-.7Zm.63.78a1.53 1.53 0 0 0-.26-.4l-.38-.39-.7.7a8.09 8.09 0 0 1 .43.5l.91-.4Zm.06 1.06c.1-.35.09-.72-.06-1.06l-.91.4a.5.5 0 0 1 .01.35l.96.3Zm-.56.85c.13-.16.25-.3.33-.43.1-.13.18-.26.23-.42l-.96-.3-.08.14-.3.38.78.63Zm-.72.99c0-.02.02-.09.15-.27.12-.17.3-.4.57-.72l-.78-.63c-.25.3-.46.57-.61.78-.15.21-.28.44-.32.7l1 .14Zm.2.46a.5.5 0 0 1-.2-.46l-.99-.14a1.5 1.5 0 0 0 .58 1.4l.6-.8Zm1.2.2c-.42-.05-.7-.07-.91-.11-.22-.04-.28-.08-.3-.09l-.6.8c.2.16.47.23.72.27.26.05.59.08.99.12l.1-1Zm1 .2c-.15-.08-.3-.11-.46-.14l-.54-.06-.1 1a7.98 7.98 0 0 1 .64.1l.46-.9Zm.7.78a1.5 1.5 0 0 0-.7-.78l-.46.9c.1.05.2.14.23.25l.93-.37Zm.11 1.02-.01-.55a1.52 1.52 0 0 0-.1-.47l-.93.37a8.14 8.14 0 0 1 .04.65h1Zm0 1.26v-1.26h-1v1.26h1Zm-.1 1.02c.06-.16.08-.32.09-.47l.01-.55h-1a8.14 8.14 0 0 1-.04.65l.93.37Zm-.71.78c.32-.17.57-.45.7-.78l-.93-.37a.5.5 0 0 1-.23.26l.46.89Zm-1 .2.54-.06c.16-.03.3-.06.46-.14l-.46-.9a7.97 7.97 0 0 1-.64.1l.1 1Zm.03 0-.16-.99.16.99Zm-1.23.2c.01-.01.07-.05.29-.09.2-.04.49-.06.9-.1l-.1-1c-.4.04-.72.07-.98.12-.25.04-.51.11-.72.27l.6.8Zm-.2.46a.5.5 0 0 1 .2-.46l-.61-.8a1.5 1.5 0 0 0-.58 1.4l1-.14Zm.72 1c-.27-.33-.45-.56-.57-.73-.13-.18-.14-.25-.15-.27l-.99.14c.04.26.17.49.32.7.15.21.36.47.61.78l.78-.63Zm.56.84c-.05-.16-.14-.3-.23-.42l-.33-.43-.78.63a8.1 8.1 0 0 1 .38.53l.96-.3Zm-.06 1.06c.15-.34.17-.71.06-1.06l-.96.3a.5.5 0 0 1-.01.36l.91.4Zm-.64.79c.15-.15.28-.28.38-.4.1-.11.2-.24.26-.4l-.91-.4c-.01.03-.03.07-.1.15a8 8 0 0 1-.34.34l.71.7Zm-.9.9.9-.9-.7-.71-.9.9.7.7Zm-.78.63c.15-.06.28-.16.4-.26l.39-.38-.7-.7a8.08 8.08 0 0 1-.5.43l.4.91Zm-1.06.06c.35.1.72.09 1.06-.06l-.4-.91a.5.5 0 0 1-.35.01l-.3.96Zm-.85-.56c.16.13.3.25.43.33.13.1.26.18.42.23l.3-.96a8.03 8.03 0 0 1-.52-.38l-.63.78Zm0 0 .63-.78-.62.78Zm-.99-.72c.02 0 .1.02.27.15.17.12.4.3.72.57l.63-.78c-.3-.25-.57-.47-.78-.61a1.64 1.64 0 0 0-.7-.32l-.14 1Zm-.46.2a.5.5 0 0 1 .46-.2l.14-.99a1.5 1.5 0 0 0-1.4.58l.8.6Zm-.2 1.2c.05-.42.07-.7.11-.91.04-.22.08-.28.09-.3l-.8-.6c-.16.2-.23.47-.27.72-.05.26-.08.59-.12.99l1 .1Zm-.2 1c.08-.15.11-.3.14-.46l.06-.54-1-.1a7.99 7.99 0 0 1-.1.64l.9.46Zm-.78.7c.33-.13.61-.38.78-.7l-.9-.46a.5.5 0 0 1-.25.23l.37.93Zm-1.02.11.55-.01c.15-.01.31-.03.47-.1l-.37-.93a8.14 8.14 0 0 1-.65.04v1Zm-1.26 0h1.26v-1h-1.26v1Zm-1.02-.1c.16.06.32.08.47.09l.55.01v-1a8.14 8.14 0 0 1-.65-.04l-.37.93Zm-.78-.71c.17.32.45.57.78.7l.37-.93a.5.5 0 0 1-.26-.23l-.89.46Zm-.2-1 .06.54c.03.16.06.3.14.46l.9-.46a7.98 7.98 0 0 1-.1-.64l-1 .1Zm-.2-1.2c.01.01.05.07.09.29.04.2.06.49.1.9l1-.1c-.04-.4-.07-.72-.12-.98-.04-.25-.11-.51-.27-.72l-.8.6Zm-.46-.2a.5.5 0 0 1 .46.2l.8-.61a1.5 1.5 0 0 0-1.4-.58l.14 1Zm-1 .72c.33-.27.56-.45.73-.57.18-.13.25-.14.27-.15l-.14-.99c-.26.04-.49.17-.7.32-.21.14-.47.36-.78.61l.63.78Zm.02-.02-.66-.74.66.74Zm-.86.58c.16-.05.3-.14.42-.23l.43-.33-.63-.78a8.1 8.1 0 0 1-.53.38l.3.96ZM9.8 24.5c.34.15.71.17 1.06.06l-.3-.96a.5.5 0 0 1-.36-.01l-.4.91Zm-.79-.64c.15.15.28.28.4.38.11.1.24.2.4.26l.4-.91a8.07 8.07 0 0 1-.48-.43l-.72.7Zm-.9-.9.9.9.7-.7-.88-.9-.71.7Zm-.63-.78c.06.15.16.28.26.4l.38.39.7-.7a8.07 8.07 0 0 1-.43-.5l-.91.4Zm-.06-1.06c-.1.35-.09.72.06 1.06l.91-.4a.5.5 0 0 1-.01-.35l-.96-.3Zm.56-.85c-.13.16-.25.3-.33.43-.1.13-.18.26-.23.42l.96.3.08-.14.3-.38-.78-.63Zm.72-.99c0 .02-.02.09-.15.27-.12.17-.3.4-.57.72l.78.63c.25-.3.46-.57.61-.78.15-.21.28-.44.32-.7l-1-.14Zm-.2-.46c.15.1.22.28.2.46l.99.14a1.5 1.5 0 0 0-.58-1.4l-.6.8Zm-1.2-.2c.42.05.7.07.91.11.22.04.28.08.3.09l.6-.8a1.64 1.64 0 0 0-.72-.27c-.26-.05-.59-.08-.99-.12l-.1 1Zm-1-.2c.15.08.3.11.46.14l.54.06.1-1a7.97 7.97 0 0 1-.64-.1l-.46.9Zm-.7-.78c.13.33.38.61.7.78l.46-.9a.5.5 0 0 1-.23-.25l-.93.37Zm-.11-1.02.01.55c.01.15.03.31.1.47l.93-.37a8.06 8.06 0 0 1-.04-.65h-1Zm0-1.26v1.26h1v-1.26h-1Zm.1-1.02c-.06.16-.08.32-.09.47l-.01.55h1a8.05 8.05 0 0 1 .04-.65l-.93-.37Zm.71-.78a1.5 1.5 0 0 0-.7.78l.93.37a.5.5 0 0 1 .23-.26l-.46-.89Zm1-.2-.54.06c-.16.03-.3.06-.46.14l.46.9a7.98 7.98 0 0 1 .64-.1l-.1-1Zm.05 0v1-1Zm0 0v1-1Zm1.16-.2c-.02.01-.08.05-.3.09-.2.04-.49.06-.9.1l.1 1c.4-.04.72-.07.98-.12.25-.04.51-.11.72-.27l-.6-.8Zm.19-.46a.5.5 0 0 1-.2.46l.61.8c.43-.33.65-.86.58-1.4l-1 .14Zm-.72-1c.27.33.45.56.57.73.13.18.14.25.15.27l.99-.14c-.04-.26-.17-.49-.32-.7-.14-.21-.36-.47-.61-.78l-.78.63Zm-.56-.84c.05.16.14.3.23.42l.33.43.78-.63a8.07 8.07 0 0 1-.38-.53l-.96.3ZM7.5 9.8c-.15.34-.17.71-.06 1.06l.96-.3a.5.5 0 0 1 .01-.36l-.91-.4Zm.64-.79c-.15.15-.28.28-.38.4-.1.11-.2.24-.26.4l.91.4c.01-.03.03-.07.1-.15l.34-.34-.71-.7Zm.9-.9-.9.9.7.7.9-.88-.7-.71Zm0 0 .7.72-.7-.71Zm.78-.64c-.15.07-.28.17-.4.27l-.39.38.7.7a8.08 8.08 0 0 1 .5-.43l-.4-.92Zm1.06-.05a1.5 1.5 0 0 0-1.06.05l.4.92a.5.5 0 0 1 .35-.01l.3-.96Zm.85.56c-.16-.13-.3-.25-.43-.33-.13-.1-.26-.18-.42-.23l-.3.96.14.08.38.3.63-.78Zm.99.72c-.02 0-.09-.02-.27-.15-.17-.12-.4-.3-.72-.57l-.63.78c.3.25.57.46.78.61.21.15.44.28.7.32l.14-1Zm.46-.2a.5.5 0 0 1-.46.2l-.14.99a1.5 1.5 0 0 0 1.4-.58l-.8-.6Zm.2-1.2c-.05.42-.07.7-.11.91-.04.22-.08.28-.09.3l.8.6c.16-.21.23-.47.27-.72.05-.26.08-.59.12-.99l-1-.1Zm.2-1c-.08.15-.11.3-.14.46l-.06.54 1 .1a7.97 7.97 0 0 1 .1-.64l-.9-.46Zm.78-.7a1.5 1.5 0 0 0-.78.7l.9.46a.5.5 0 0 1 .25-.23l-.37-.93Zm1.02-.11-.55.01c-.15.01-.31.03-.47.1l.37.92c.02 0 .06-.02.17-.02l.48-.01v-1Zm1.26 0h-1.26v1h1.26v-1Zm1.02.1a1.53 1.53 0 0 0-.47-.09l-.55-.01v1a8.06 8.06 0 0 1 .65.04l.37-.93Zm.78.71a1.5 1.5 0 0 0-.78-.7l-.37.93c.11.04.2.12.26.23l.89-.46ZM19.5 16a3.5 3.5 0 0 1-3.5 3.5v1a4.5 4.5 0 0 0 4.5-4.5h-1ZM16 12.5a3.5 3.5 0 0 1 3.5 3.5h1a4.5 4.5 0 0 0-4.5-4.5v1ZM12.5 16a3.5 3.5 0 0 1 3.5-3.5v-1a4.5 4.5 0 0 0-4.5 4.5h1Zm3.5 3.5a3.5 3.5 0 0 1-3.5-3.5h-1a4.5 4.5 0 0 0 4.5 4.5v-1Z" data-color="1"/>
</svg>
