<svg width="17" height="15" fill="none" xmlns="http://www.w3.org/2000/svg">
  <path d="M8.989 14.473a.909.909 0 0 0 .425-.103c.131-.063.268-.161.41-.293l5.764-5.405c.156-.147.259-.283.308-.41a.924.924 0 0 0 .08-.36.924.924 0 0 0-.08-.358c-.05-.127-.152-.264-.308-.41L9.824 1.758a1.967 1.967 0 0 0-.418-.322.825.825 0 0 0-.41-.103.687.687 0 0 0-.535.227.761.761 0 0 0-.197.527v2.93h-.25c-1.24 0-2.33.188-3.273.564A5.985 5.985 0 0 0 2.39 7.244c-.625.732-1.097 1.635-1.414 2.71C.66 11.028.5 12.264.5 13.66c0 .258.063.459.19.6a.605.605 0 0 0 .455.213.889.889 0 0 0 .402-.096c.132-.058.25-.19.352-.395.39-.791.867-1.416 1.428-1.875a5.03 5.03 0 0 1 2-.989c.771-.2 1.667-.3 2.688-.3h.249v2.922c0 .21.066.383.197.52a.7.7 0 0 0 .528.213Zm.293-1.172c-.073 0-.11-.044-.11-.132v-2.981c0-.151-.076-.227-.227-.227h-.813c-1.768 0-3.208.278-4.321.835-1.109.552-1.888 1.34-2.337 2.366a.397.397 0 0 1-.044.08.07.07 0 0 1-.058.03c-.05 0-.074-.032-.074-.096.02-.835.115-1.62.286-2.358a7.555 7.555 0 0 1 .784-2.014 5.665 5.665 0 0 1 1.318-1.568 5.634 5.634 0 0 1 1.904-1.01c.738-.235 1.585-.352 2.542-.352h.813c.151 0 .227-.076.227-.227V2.585c0-.078.039-.117.117-.117.024 0 .049.008.073.022.03.015.056.032.08.051l5.399 5.12c.093.088.139.169.139.242 0 .034-.01.07-.03.11a.698.698 0 0 1-.11.132l-5.404 5.068c-.054.059-.105.088-.154.088Z" fill="currentColor" stroke="currentColor" stroke-width=".833" />
</svg>
