<svg width="16" height="16" viewBox="0 0 16 16" xmlns="http://www.w3.org/2000/svg" fill="none">
  <path fill="currentColor" d="M7.53 1.505a.664.664 0 0 1 .94 0c.084.084.13.174.152.218.037.08.07.18.09.244l.006.017L9.99 5.897h4.133c.068 0 .172 0 .26.01a.779.779 0 0 1 .254.078.664.664 0 0 1 .29.893.779.779 0 0 1-.16.212c-.065.06-.149.122-.204.162l-.015.01-3.327 2.42 1.271 3.913.006.017c.021.065.053.164.07.25a.78.78 0 0 1 .005.266.664.664 0 0 1-.76.553.778.778 0 0 1-.25-.088 2.112 2.112 0 0 1-.232-.154L8 12.02l-3.329 2.42-.014.01c-.055.04-.14.101-.217.143a.78.78 0 0 1-.25.088.664.664 0 0 1-.76-.553.779.779 0 0 1 .005-.266 1.96 1.96 0 0 1 .07-.25l.005-.017 1.27-3.913-3.327-2.419-.015-.01c-.055-.04-.14-.1-.203-.162a.779.779 0 0 1-.162-.212.664.664 0 0 1 .29-.893.779.779 0 0 1 .256-.077c.087-.01.19-.01.26-.01H6.01l1.271-3.914.006-.017a2.09 2.09 0 0 1 .09-.244.779.779 0 0 1 .153-.218z" clip-rule="evenodd" fill-rule="evenodd"/>
</svg>
