<svg width="16" height="16" viewBox="0 0 16 16" fill="none" xmlns="http://www.w3.org/2000/svg">
  <path fill-rule="evenodd" clip-rule="evenodd" d="M8.00041 15.5008C12.1428 15.5008 15.5008 12.1428 15.5008 8.00041C15.5008 3.85805 12.1428 0.5 8.00041 0.5C3.85805 0.5 0.5 3.85805 0.5 8.00041C0.5 12.1428 3.85805 15.5008 8.00041 15.5008ZM11.9741 6.03379C12.2688 5.6802 12.221 5.1547 11.8674 4.86005C11.5139 4.5654 10.9884 4.61317 10.6937 4.96675L7.69524 8.5649C7.4063 8.91164 7.24386 9.1036 7.11417 9.22157L7.10922 9.22605L7.10387 9.22203C6.96404 9.1163 6.78489 8.93983 6.46574 8.62068L5.25618 7.41112C4.93073 7.08566 4.40306 7.08566 4.07761 7.41112C3.75215 7.73657 3.75215 8.26424 4.07761 8.58969L5.28716 9.79925L5.32119 9.83328L5.32119 9.83329C5.59328 10.1055 5.85504 10.3673 6.09858 10.5515C6.3714 10.7578 6.72869 10.9518 7.18655 10.931C7.64442 10.9102 7.98268 10.6847 8.2357 10.4546C8.46157 10.2491 8.69854 9.96463 8.94488 9.66891L8.94488 9.66891L8.97568 9.63194L11.9741 6.03379Z" fill="currentColor"/>
</svg>
