<svg width="16" height="16" viewBox="0 0 16 16" fill="none" xmlns="http://www.w3.org/2000/svg">
  <path fill-rule="evenodd" clip-rule="evenodd" d="M14.667 8A6.667 6.667 0 1 1 1.333 8a6.667 6.667 0 0 1 13.334 0ZM8 13.334A5.333 5.333 0 1 0 8 2.667a5.333 5.333 0 0 0 0 10.667Z" fill="currentColor" />
  <path fill-rule="evenodd" clip-rule="evenodd" d="M8 5c.368 0 .667.298.667.667v1.666H11a.667.667 0 1 1 0 1.334H8.167a.833.833 0 0 1-.834-.834V5.667C7.333 5.298 7.632 5 8 5Z" fill="currentColor" />
</svg>