<svg width="20" height="20" fill="none" xmlns="http://www.w3.org/2000/svg">
  <path fill-rule="evenodd" clip-rule="evenodd" d="M10 4.167a2.5 2.5 0 1 0 0 5 2.5 2.5 0 0 0 0-5Zm-4.167 2.5a4.167 4.167 0 1 1 8.334 0 4.167 4.167 0 0 1-8.334 0ZM11.105 12.563A9.676 9.676 0 0 0 10 12.5c-1.6 0-3.172.395-4.474 1.144-1.302.75-2.292 1.831-2.75 3.115a.833.833 0 0 0 1.57.56c.3-.842.984-1.64 2.011-2.23.845-.487 1.863-.797 2.941-.892.276-.813.96-1.44 1.807-1.634ZM15 10.833c.46 0 .833.373.833.834v6.666a.833.833 0 1 1-1.666 0v-6.666c0-.46.373-.834.833-.834Z" fill="currentColor"/>
  <path fill-rule="evenodd" clip-rule="evenodd" d="M19.167 15c0 .46-.373.833-.834.833h-6.666a.833.833 0 0 1 0-1.666h6.666c.46 0 .834.373.834.833Z" fill="currentColor"/>
</svg>
