<svg fill="none" xmlns="http://www.w3.org/2000/svg" width="16" height="16" viewBox="0 0 16 16">
    <path fill-rule="evenodd" clip-rule="evenodd" d="M8 2.667a5.333 5.333 0 1 0 0 10.666A5.333 5.333 0 0 0 8 2.667ZM1.333 8a6.667 6.667 0 1 1 13.334 0A6.667 6.667 0 0 1 1.333 8Z" fill="currentColor"/>
    <path fill-rule="evenodd" clip-rule="evenodd" d="M8 4.667c.368 0 .667.298.667.666v3.333a.667.667 0 0 1-1.334 0V5.333c0-.368.299-.667.667-.667ZM8 10.333c.368 0 .667.299.667.667v.333a.667.667 0 1 1-1.334 0V11c0-.368.299-.667.667-.667Z" fill="currentColor"/>
</svg>