<svg width="16" height="16" viewBox="0 0 16 16" fill="none" xmlns="http://www.w3.org/2000/svg">
  <path fill-rule="evenodd" clip-rule="evenodd" d="M15.5008 8.00041C15.5008 12.1428 12.1428 15.5008 8.00041 15.5008C3.85805 15.5008 0.5 12.1428 0.5 8.00041C0.5 3.85805 3.85805 0.5 8.00041 0.5C12.1428 0.5 15.5008 3.85805 15.5008 8.00041ZM8.00041 3.83351C8.46067 3.83351 8.83379 4.20663 8.83379 4.66689V8.83379C8.83379 9.29405 8.46067 9.66716 8.00041 9.66716C7.54014 9.66716 7.16703 9.29405 7.16703 8.83379V4.66689C7.16703 4.20663 7.54014 3.83351 8.00041 3.83351ZM8.83379 11.7506C8.83379 11.2903 8.46067 10.9172 8.00041 10.9172C7.54014 10.9172 7.16703 11.2903 7.16703 11.7506V12.1673C7.16703 12.6276 7.54014 13.0007 8.00041 13.0007C8.46067 13.0007 8.83379 12.6276 8.83379 12.1673V11.7506Z" fill="currentColor"/>
</svg>
