<svg width="40" height="40" viewBox="0 0 40 40" fill="none" xmlns="http://www.w3.org/2000/svg">
    <rect x="8.189" y="2" width="30.811" height="36" rx="2" fill="#EBEBEB"/>
    <path d="M8.189 29h30.81v7a2 2 0 0 1-2 2H10.19a2 2 0 0 1-2-2v-7Z" fill="#C8C8C8"/>
    <path d="M29.757 29V2H37a2 2 0 0 1 2 2v25h-9.243Z" fill="#DDD"/>
    <rect x="1" y="11" width="36.973" height="19.5" rx="2" fill="#005871"/>
    <path d="M7.83 17.61h1.2l2.72 7.14h-1.29l-.67-1.82H7.02l-.66 1.82H5.11l2.72-7.14Zm1.63 4.31L8.4 18.98l-1.05 2.94h2.11Zm8.735.42c-.04.373-.13.717-.27 1.03-.14.313-.333.587-.58.82a2.656 2.656 0 0 1-.9.55 3.64 3.64 0 0 1-1.23.19c-.513 0-.973-.087-1.38-.26-.4-.173-.74-.42-1.02-.74a3.444 3.444 0 0 1-.63-1.18 5.419 5.419 0 0 1-.21-1.56c0-.587.077-1.113.23-1.58.16-.467.383-.86.67-1.18a2.77 2.77 0 0 1 1.03-.74c.4-.173.84-.26 1.32-.26.447 0 .833.057 1.16.17.327.113.603.277.83.49.233.207.417.457.55.75.14.293.243.62.31.98l-1.19.17a3.63 3.63 0 0 0-.2-.64 1.398 1.398 0 0 0-.32-.47 1.189 1.189 0 0 0-.47-.3 1.833 1.833 0 0 0-.67-.11c-.32 0-.603.063-.85.19a1.77 1.77 0 0 0-.63.55 2.552 2.552 0 0 0-.38.85c-.087.333-.13.707-.13 1.12 0 .42.043.797.13 1.13.093.333.227.62.4.86.173.233.38.413.62.54.247.12.527.18.84.18.28 0 .517-.037.71-.11.2-.073.367-.177.5-.31s.237-.293.31-.48c.08-.193.137-.41.17-.65h1.28Zm7.12 0c-.04.373-.13.717-.27 1.03-.14.313-.334.587-.58.82a2.654 2.654 0 0 1-.9.55c-.354.127-.764.19-1.23.19a3.49 3.49 0 0 1-1.38-.26c-.4-.173-.74-.42-1.02-.74a3.448 3.448 0 0 1-.63-1.18 5.419 5.419 0 0 1-.21-1.56c0-.587.076-1.113.23-1.58.16-.467.383-.86.67-1.18.286-.327.63-.573 1.03-.74.4-.173.84-.26 1.32-.26.446 0 .833.057 1.16.17.326.113.603.277.83.49.233.207.416.457.55.75.14.293.243.62.31.98l-1.19.17a3.62 3.62 0 0 0-.2-.64 1.397 1.397 0 0 0-.32-.47 1.187 1.187 0 0 0-.47-.3 1.832 1.832 0 0 0-.67-.11c-.32 0-.604.063-.85.19a1.77 1.77 0 0 0-.63.55 2.556 2.556 0 0 0-.38.85c-.087.333-.13.707-.13 1.12 0 .42.043.797.13 1.13.093.333.226.62.4.86.173.233.38.413.62.54.246.12.526.18.84.18.28 0 .516-.037.71-.11.2-.073.366-.177.5-.31.133-.133.236-.293.31-.48.08-.193.136-.41.17-.65h1.28Zm2.773-1.36-2.32-3.37h1.38l1.64 2.5 1.66-2.5h1.3l-2.3 3.42 2.58 3.72h-1.39l-1.9-2.82-1.84 2.82h-1.31l2.5-3.77Z" fill="#fff"/>
</svg>