<svg width="40" height="40" viewBox="0 0 40 40" fill="none" xmlns="http://www.w3.org/2000/svg">
    <rect x="9.39" y="2" width="29.61" height="36" rx="2" fill="#EBEBEB"/>
    <path d="M9.39 29H39v7a2 2 0 0 1-2 2H11.39a2 2 0 0 1-2-2v-7Z" fill="#C8C8C8"/>
    <path d="M30.117 29V2H37a2 2 0 0 1 2 2v25h-8.883Z" fill="#DDD"/>
    <rect x="1" y="11" width="33.558" height="19.5" rx="2" fill="#1859A9"/>
    <path d="M7.83 17.61h1.2l2.72 7.14h-1.29l-.67-1.82H7.02l-.66 1.82H5.11l2.72-7.14Zm1.63 4.31L8.4 18.98l-1.05 2.94h2.11Zm3.75.65c.053.467.22.807.5 1.02.287.213.71.32 1.27.32.274 0 .503-.03.69-.09.187-.06.337-.14.45-.24a.827.827 0 0 0 .24-.35c.047-.14.07-.287.07-.44 0-.113-.017-.223-.05-.33a.774.774 0 0 0-.18-.31 1.082 1.082 0 0 0-.35-.24 2.068 2.068 0 0 0-.56-.17l-.91-.17c-.36-.067-.68-.15-.96-.25-.28-.1-.517-.23-.71-.39a1.683 1.683 0 0 1-.43-.6c-.093-.24-.14-.53-.14-.87 0-.34.067-.637.2-.89.14-.253.33-.463.57-.63.24-.173.524-.3.85-.38a4.28 4.28 0 0 1 1.08-.13c.494 0 .907.057 1.24.17.334.113.604.263.81.45.207.18.363.39.47.63.107.24.18.49.22.75l-1.14.18c-.093-.4-.257-.697-.49-.89-.226-.193-.59-.29-1.09-.29-.287 0-.526.027-.72.08-.187.047-.34.117-.46.21a.793.793 0 0 0-.25.31.935.935 0 0 0-.07.36c0 .313.084.547.25.7.174.153.474.273.9.36l.99.19c.753.14 1.307.38 1.66.72.354.333.53.817.53 1.45 0 .3-.056.58-.17.84a1.79 1.79 0 0 1-.5.67c-.226.187-.51.333-.85.44a3.64 3.64 0 0 1-1.17.17c-.913 0-1.63-.19-2.15-.57-.52-.387-.806-.983-.86-1.79h1.22Zm5.646-4.96h2.47c.54 0 .983.06 1.33.18.353.12.63.28.83.48.2.2.34.433.42.7.08.26.12.533.12.82 0 .307-.04.6-.12.88-.08.28-.224.527-.43.74-.2.207-.474.373-.82.5-.347.12-.784.18-1.31.18h-1.3v2.66h-1.19v-7.14Zm2.46 3.47c.306 0 .556-.03.75-.09.2-.06.356-.143.47-.25a.866.866 0 0 0 .23-.4c.046-.153.07-.327.07-.52 0-.2-.024-.373-.07-.52a.779.779 0 0 0-.25-.38c-.114-.1-.27-.177-.47-.23a2.848 2.848 0 0 0-.74-.08h-1.26v2.47h1.27Zm5.297-.1-2.32-3.37h1.38l1.64 2.5 1.66-2.5h1.3l-2.3 3.42 2.58 3.72h-1.39l-1.9-2.82-1.84 2.82h-1.31l2.5-3.77Z" fill="#fff"/>
</svg>