<svg width="40" height="40" viewBox="0 0 40 40" fill="none" xmlns="http://www.w3.org/2000/svg">
    <rect x="9" y="2" width="30" height="36" rx="2" fill="#EBEBEB"/>
    <path d="M9 29h30v7a2 2 0 0 1-2 2H11a2 2 0 0 1-2-2v-7Z" fill="#C8C8C8"/>
    <path d="M30 29V2h7a2 2 0 0 1 2 2v25h-9Z" fill="#DDD"/>
    <rect x="1" y="11" width="29" height="19.5" rx="2" fill="#EE7623"/>
    <path d="M11.74 22.34c-.04.373-.13.717-.27 1.03-.14.313-.333.587-.58.82a2.656 2.656 0 0 1-.9.55c-.353.127-.763.19-1.23.19a3.49 3.49 0 0 1-1.38-.26c-.4-.173-.74-.42-1.02-.74a3.447 3.447 0 0 1-.63-1.18 5.419 5.419 0 0 1-.21-1.56c0-.587.077-1.113.23-1.58.16-.467.383-.86.67-1.18.287-.327.63-.573 1.03-.74.4-.173.84-.26 1.32-.26.447 0 .833.057 1.16.17.327.113.603.277.83.49.233.207.417.457.55.75.14.293.243.62.31.98l-1.19.17a3.62 3.62 0 0 0-.2-.64 1.398 1.398 0 0 0-.32-.47 1.188 1.188 0 0 0-.47-.3 1.833 1.833 0 0 0-.67-.11c-.32 0-.603.063-.85.19a1.77 1.77 0 0 0-.63.55 2.554 2.554 0 0 0-.38.85c-.087.333-.13.707-.13 1.12 0 .42.043.797.13 1.13.093.333.227.62.4.86.173.233.38.413.62.54.247.12.527.18.84.18.28 0 .517-.037.71-.11.2-.073.367-.177.5-.31s.237-.293.31-.48c.08-.193.137-.41.17-.65h1.28Zm2.076.23c.053.467.22.807.5 1.02.286.213.71.32 1.27.32.273 0 .503-.03.69-.09.186-.06.336-.14.45-.24a.826.826 0 0 0 .24-.35c.046-.14.07-.287.07-.44 0-.113-.017-.223-.05-.33a.772.772 0 0 0-.18-.31 1.08 1.08 0 0 0-.35-.24 2.066 2.066 0 0 0-.56-.17l-.91-.17c-.36-.067-.68-.15-.96-.25-.28-.1-.517-.23-.71-.39a1.684 1.684 0 0 1-.43-.6c-.094-.24-.14-.53-.14-.87 0-.34.066-.637.2-.89.14-.253.33-.463.57-.63.24-.173.523-.3.85-.38a4.28 4.28 0 0 1 1.08-.13c.493 0 .906.057 1.24.17.333.113.603.263.81.45.206.18.363.39.47.63.106.24.18.49.22.75l-1.14.18c-.094-.4-.257-.697-.49-.89-.227-.193-.59-.29-1.09-.29-.287 0-.527.027-.72.08-.187.047-.34.117-.46.21a.795.795 0 0 0-.25.31.937.937 0 0 0-.07.36c0 .313.083.547.25.7.173.153.473.273.9.36l.99.19c.753.14 1.306.38 1.66.72.353.333.53.817.53 1.45 0 .3-.057.58-.17.84a1.787 1.787 0 0 1-.5.67c-.227.187-.51.333-.85.44-.334.113-.724.17-1.17.17-.914 0-1.63-.19-2.15-.57-.52-.387-.807-.983-.86-1.79h1.22Zm6.248-4.96 1.96 5.5 1.99-5.5h1.29l-2.71 7.14h-1.16l-2.72-7.14h1.35Z" fill="#fff"/>
</svg>