<svg width="40" height="40" viewBox="0 0 40 40" fill="none" xmlns="http://www.w3.org/2000/svg">
    <rect x="9.021" y="2" width="30.082" height="36" rx="2" fill="#EBEBEB"/>
    <path d="M9.021 29h30.083v7a2 2 0 0 1-2 2H11.022a2 2 0 0 1-2-2v-7Z" fill="#C8C8C8"/>
    <path d="M30.08 29V2h7.024a2 2 0 0 1 2 2v25h-9.025Z" fill="#DDD"/>
    <rect x="1.104" y="11" width="26.866" height="19.5" rx="2" fill="#089BD7"/>
    <path d="M6.314 22.02c.027.22.067.42.12.6.06.173.143.323.25.45.113.12.253.217.42.29.173.067.387.1.64.1.487 0 .833-.14 1.04-.42.207-.28.31-.68.31-1.2v-4.66h1.21v4.74c0 .853-.23 1.497-.69 1.93-.453.433-1.07.65-1.85.65-.82 0-1.453-.2-1.9-.6-.447-.4-.7-1.027-.76-1.88h1.21ZM11.756 17.18h2.47c.54 0 .983.06 1.33.18.353.12.63.28.83.48.2.2.34.433.42.7.08.26.12.533.12.82 0 .307-.04.6-.12.88-.08.28-.224.527-.43.74-.2.207-.474.373-.82.5-.347.12-.783.18-1.31.18h-1.3v2.66h-1.19v-7.14Zm2.46 3.47c.307 0 .557-.03.75-.09.2-.06.357-.143.47-.25a.866.866 0 0 0 .23-.4c.046-.153.07-.327.07-.52 0-.2-.024-.373-.07-.52a.779.779 0 0 0-.25-.38c-.114-.1-.27-.177-.47-.23a2.848 2.848 0 0 0-.74-.08h-1.26v2.47h1.27ZM23.896 20.53v2.94c-.366.34-.8.597-1.3.77-.5.173-1.003.26-1.51.26-.553 0-1.04-.087-1.46-.26-.413-.18-.76-.43-1.04-.75-.28-.327-.49-.72-.63-1.18-.14-.46-.21-.977-.21-1.55 0-.58.077-1.1.23-1.56.154-.467.37-.863.65-1.19.28-.327.62-.577 1.02-.75.4-.173.847-.26 1.34-.26.434 0 .81.057 1.13.17.327.107.6.257.82.45.227.193.407.42.54.68.14.253.24.527.3.82l-1.19.17c-.053-.2-.12-.377-.2-.53a1.163 1.163 0 0 0-.75-.64c-.18-.06-.396-.09-.65-.09-.333 0-.626.067-.88.2-.246.127-.453.31-.62.55-.166.24-.29.527-.37.86a4.76 4.76 0 0 0-.12 1.11c0 .42.04.797.12 1.13.08.333.207.62.38.86.174.233.39.413.65.54.267.127.587.19.96.19.334 0 .634-.033.9-.1.267-.073.524-.197.77-.37v-1.45h-1.58v-1.02h2.7Z" fill="#fff"/>
</svg>