<svg width="40" height="40" viewBox="0 0 40 40" fill="none" xmlns="http://www.w3.org/2000/svg">
    <rect x="9" y="2" width="30" height="36" rx="2" fill="#EBEBEB"/>
    <path d="M9 29h30v7a2 2 0 0 1-2 2H11a2 2 0 0 1-2-2v-7Z" fill="#C8C8C8"/>
    <path d="M30 29V2h7a2 2 0 0 1 2 2v25h-9Z" fill="#DDD"/>
    <rect x="1" y="11" width="27" height="19.5" rx="2" fill="#303030"/>
    <path d="M6.49 22.45c.027.22.067.42.12.6.06.173.143.323.25.45.113.12.253.217.42.29.173.067.387.1.64.1.487 0 .833-.14 1.04-.42.207-.28.31-.68.31-1.2v-4.66h1.21v4.74c0 .853-.23 1.497-.69 1.93-.453.433-1.07.65-1.85.65-.82 0-1.453-.2-1.9-.6-.447-.4-.7-1.027-.76-1.88h1.21Zm6.232.12c.053.467.22.807.5 1.02.287.213.71.32 1.27.32.273 0 .503-.03.69-.09.186-.06.336-.14.45-.24a.827.827 0 0 0 .24-.35c.046-.14.07-.287.07-.44 0-.113-.017-.223-.05-.33a.774.774 0 0 0-.18-.31 1.082 1.082 0 0 0-.35-.24 2.068 2.068 0 0 0-.56-.17l-.91-.17c-.36-.067-.68-.15-.96-.25-.28-.1-.517-.23-.71-.39a1.683 1.683 0 0 1-.43-.6c-.094-.24-.14-.53-.14-.87 0-.34.067-.637.2-.89.14-.253.33-.463.57-.63.24-.173.523-.3.85-.38a4.28 4.28 0 0 1 1.08-.13c.493 0 .906.057 1.24.17.333.113.603.263.81.45.206.18.363.39.47.63.107.24.18.49.22.75l-1.14.18c-.094-.4-.257-.697-.49-.89-.227-.193-.59-.29-1.09-.29-.287 0-.527.027-.72.08-.187.047-.34.117-.46.21a.793.793 0 0 0-.25.31.935.935 0 0 0-.07.36c0 .313.083.547.25.7.173.153.473.273.9.36l.99.19c.753.14 1.306.38 1.66.72.353.333.53.817.53 1.45 0 .3-.057.58-.17.84a1.79 1.79 0 0 1-.5.67c-.227.187-.51.333-.85.44a3.64 3.64 0 0 1-1.17.17c-.914 0-1.63-.19-2.15-.57-.52-.387-.807-.983-.86-1.79h1.22Zm5.645-4.96h2.47c.54 0 .984.06 1.33.18.354.12.63.28.83.48.2.2.34.433.42.7.08.26.12.533.12.82 0 .307-.04.6-.12.88-.08.28-.223.527-.43.74-.2.207-.473.373-.82.5-.346.12-.783.18-1.31.18h-1.3v2.66h-1.19v-7.14Zm2.46 3.47c.307 0 .557-.03.75-.09.2-.06.357-.143.47-.25a.865.865 0 0 0 .23-.4c.047-.153.07-.327.07-.52 0-.2-.023-.373-.07-.52a.778.778 0 0 0-.25-.38c-.113-.1-.27-.177-.47-.23a2.848 2.848 0 0 0-.74-.08h-1.26v2.47h1.27Z" fill="#fff"/>
</svg>