<svg width="40" height="40" viewBox="0 0 40 40" fill="none" xmlns="http://www.w3.org/2000/svg">
    <rect x="9" y="2" width="30" height="36" rx="2" fill="#EBEBEB"/>
    <path d="M9 29h30v7a2 2 0 0 1-2 2H11a2 2 0 0 1-2-2v-7Z" fill="#C8C8C8"/>
    <path d="M30 29V2h7a2 2 0 0 1 2 2v25h-9Z" fill="#DDD"/>
    <rect x="1" y="11" width="31" height="19.5" rx="2" fill="#00754A"/>
    <path d="M5.76 17.61h1.47l2.03 5.68 2.09-5.68h1.42v7.14h-1.11v-5.19L9.7 24.75h-.96l-1.89-5.18v5.18H5.76v-7.14Zm9.315 4.96c.054.467.22.807.5 1.02.287.213.71.32 1.27.32.274 0 .504-.03.69-.09.187-.06.337-.14.45-.24a.827.827 0 0 0 .24-.35c.047-.14.07-.287.07-.44 0-.113-.016-.223-.05-.33a.772.772 0 0 0-.18-.31 1.081 1.081 0 0 0-.35-.24 2.067 2.067 0 0 0-.56-.17l-.91-.17c-.36-.067-.68-.15-.96-.25-.28-.1-.516-.23-.71-.39a1.683 1.683 0 0 1-.43-.6c-.093-.24-.14-.53-.14-.87 0-.34.067-.637.2-.89.14-.253.33-.463.57-.63.24-.173.524-.3.85-.38a4.28 4.28 0 0 1 1.08-.13c.494 0 .907.057 1.24.17.334.113.604.263.81.45.207.18.364.39.47.63.107.24.18.49.22.75l-1.14.18c-.093-.4-.256-.697-.49-.89-.226-.193-.59-.29-1.09-.29-.286 0-.526.027-.72.08-.186.047-.34.117-.46.21a.794.794 0 0 0-.25.31.935.935 0 0 0-.07.36c0 .313.084.547.25.7.174.153.474.273.9.36l.99.19c.754.14 1.307.38 1.66.72.354.333.53.817.53 1.45 0 .3-.056.58-.17.84a1.788 1.788 0 0 1-.5.67c-.226.187-.51.333-.85.44-.333.113-.723.17-1.17.17-.913 0-1.63-.19-2.15-.57-.52-.387-.806-.983-.86-1.79h1.22Zm11.458-1.61v2.94c-.366.34-.8.597-1.3.77-.5.173-1.003.26-1.51.26-.553 0-1.04-.087-1.46-.26-.413-.18-.76-.43-1.04-.75-.28-.327-.49-.72-.63-1.18-.14-.46-.21-.977-.21-1.55 0-.58.077-1.1.23-1.56.154-.467.37-.863.65-1.19.28-.327.62-.577 1.02-.75.4-.173.847-.26 1.34-.26.434 0 .81.057 1.13.17.327.107.6.257.82.45.227.193.407.42.54.68.14.253.24.527.3.82l-1.19.17c-.053-.2-.12-.377-.2-.53a1.163 1.163 0 0 0-.75-.64c-.18-.06-.396-.09-.65-.09-.333 0-.626.067-.88.2-.246.127-.453.31-.62.55-.166.24-.29.527-.37.86a4.76 4.76 0 0 0-.12 1.11c0 .42.04.797.12 1.13.08.333.207.62.38.86.174.233.39.413.65.54.267.127.587.19.96.19.334 0 .634-.033.9-.1a2.48 2.48 0 0 0 .77-.37v-1.45h-1.58v-1.02h2.7Z" fill="#fff"/>
</svg>