<svg width="40" height="40" viewBox="0 0 40 40" fill="none" xmlns="http://www.w3.org/2000/svg">
    <rect x="9.39" y="2" width="29.61" height="36" rx="2" fill="#EBEBEB"/>
    <path d="M9.39 29H39v7a2 2 0 0 1-2 2H11.39a2 2 0 0 1-2-2v-7Z" fill="#C8C8C8"/>
    <path d="M30.117 29V2H37a2 2 0 0 1 2 2v25h-8.883Z" fill="#DDD"/>
    <rect x="1" y="11" width="29.61" height="19.5" rx="2" fill="#00754A"/>
    <path d="M8.87 24.93c-.513 0-.977-.083-1.39-.25a3.005 3.005 0 0 1-1.05-.74 3.32 3.32 0 0 1-.68-1.17 5.05 5.05 0 0 1-.23-1.58c0-.587.08-1.113.24-1.58.16-.467.387-.86.68-1.18a2.824 2.824 0 0 1 1.06-.74 3.51 3.51 0 0 1 1.37-.26c.507 0 .967.087 1.38.26.413.167.763.41 1.05.73.287.32.507.713.66 1.18.16.46.24.983.24 1.57 0 .593-.077 1.123-.23 1.59-.153.46-.373.853-.66 1.18-.287.32-.637.567-1.05.74-.407.167-.87.25-1.39.25Zm-.01-1.04c.687 0 1.207-.24 1.56-.72.353-.487.53-1.15.53-1.99 0-.42-.047-.797-.14-1.13a2.44 2.44 0 0 0-.39-.85 1.758 1.758 0 0 0-.65-.54 2.054 2.054 0 0 0-.91-.19c-.347 0-.65.063-.91.19s-.48.307-.66.54a2.438 2.438 0 0 0-.39.85c-.087.333-.13.71-.13 1.13 0 .84.173 1.503.52 1.99.353.48.877.72 1.57.72Zm7.005-.17c.42 0 .776-.06 1.07-.18.3-.12.543-.293.73-.52.193-.227.333-.497.42-.81.086-.313.13-.667.13-1.06 0-.787-.167-1.4-.5-1.84-.334-.447-.88-.67-1.64-.67h-1.38v5.08h1.17Zm.2-6.11c.526 0 1 .073 1.42.22.42.14.776.357 1.07.65.293.293.516.663.67 1.11.16.44.24.957.24 1.55 0 .593-.084 1.117-.25 1.57a3.045 3.045 0 0 1-.72 1.13c-.314.3-.697.527-1.15.68-.447.153-.954.23-1.52.23h-2.34v-7.14h2.58Zm4.675 0h2.47c.54 0 .984.06 1.33.18.354.12.63.28.83.48.2.2.34.433.42.7.08.26.12.533.12.82 0 .307-.04.6-.12.88-.08.28-.223.527-.43.74-.2.207-.473.373-.82.5-.346.12-.783.18-1.31.18h-1.3v2.66h-1.19v-7.14Zm2.46 3.47c.307 0 .557-.03.75-.09.2-.06.357-.143.47-.25a.866.866 0 0 0 .23-.4c.047-.153.07-.327.07-.52 0-.2-.023-.373-.07-.52a.779.779 0 0 0-.25-.38c-.113-.1-.27-.177-.47-.23a2.848 2.848 0 0 0-.74-.08h-1.26v2.47h1.27Z" fill="#fff"/>
</svg>