<svg width="40" height="40" viewBox="0 0 40 40" fill="none" xmlns="http://www.w3.org/2000/svg">
    <rect x="8.6" y="2" width="30.4" height="36" rx="2" fill="#EBEBEB"/>
    <path d="M8.6 29H39v7a2 2 0 0 1-2 2H10.6a2 2 0 0 1-2-2v-7Z" fill="#C8C8C8"/>
    <path d="M29.88 29V2H37a2 2 0 0 1 2 2v25h-9.12Z" fill="#DDD"/>
    <rect x="1" y="11" width="30.4" height="19.5" rx="2" fill="#1859A9"/>
    <path d="M8.87 24.93c-.513 0-.977-.083-1.39-.25a3.005 3.005 0 0 1-1.05-.74 3.32 3.32 0 0 1-.68-1.17 5.05 5.05 0 0 1-.23-1.58c0-.587.08-1.113.24-1.58.16-.467.387-.86.68-1.18a2.824 2.824 0 0 1 1.06-.74 3.51 3.51 0 0 1 1.37-.26c.507 0 .967.087 1.38.26.413.167.763.41 1.05.73.287.32.507.713.66 1.18.16.46.24.983.24 1.57 0 .593-.077 1.123-.23 1.59-.153.46-.373.853-.66 1.18-.287.32-.637.567-1.05.74-.407.167-.87.25-1.39.25Zm-.01-1.04c.687 0 1.207-.24 1.56-.72.353-.487.53-1.15.53-1.99 0-.42-.047-.797-.14-1.13a2.44 2.44 0 0 0-.39-.85 1.758 1.758 0 0 0-.65-.54 2.054 2.054 0 0 0-.91-.19c-.347 0-.65.063-.91.19s-.48.307-.66.54a2.438 2.438 0 0 0-.39.85c-.087.333-.13.71-.13 1.13 0 .84.173 1.503.52 1.99.353.48.877.72 1.57.72Zm7.005-.17c.42 0 .776-.06 1.07-.18.3-.12.543-.293.73-.52.193-.227.333-.497.42-.81.086-.313.13-.667.13-1.06 0-.787-.167-1.4-.5-1.84-.334-.447-.88-.67-1.64-.67h-1.38v5.08h1.17Zm.2-6.11c.526 0 1 .073 1.42.22.42.14.776.357 1.07.65.293.293.516.663.67 1.11.16.44.24.957.24 1.55 0 .593-.084 1.117-.25 1.57a3.045 3.045 0 0 1-.72 1.13c-.314.3-.697.527-1.15.68-.447.153-.954.23-1.52.23h-2.34v-7.14h2.58Zm5.465 4.96c.054.467.22.807.5 1.02.287.213.71.32 1.27.32.274 0 .504-.03.69-.09.187-.06.337-.14.45-.24a.827.827 0 0 0 .24-.35c.047-.14.07-.287.07-.44 0-.113-.016-.223-.05-.33a.774.774 0 0 0-.18-.31 1.082 1.082 0 0 0-.35-.24 2.068 2.068 0 0 0-.56-.17l-.91-.17c-.36-.067-.68-.15-.96-.25-.28-.1-.516-.23-.71-.39a1.683 1.683 0 0 1-.43-.6c-.093-.24-.14-.53-.14-.87 0-.34.067-.637.2-.89.14-.253.33-.463.57-.63.24-.173.524-.3.85-.38a4.28 4.28 0 0 1 1.08-.13c.494 0 .907.057 1.24.17.334.113.604.263.81.45.207.18.364.39.47.63.107.24.18.49.22.75l-1.14.18c-.093-.4-.256-.697-.49-.89-.226-.193-.59-.29-1.09-.29-.286 0-.526.027-.72.08-.186.047-.34.117-.46.21a.793.793 0 0 0-.25.31.935.935 0 0 0-.07.36c0 .313.084.547.25.7.174.153.474.273.9.36l.99.19c.754.14 1.307.38 1.66.72.354.333.53.817.53 1.45 0 .3-.056.58-.17.84a1.79 1.79 0 0 1-.5.67c-.226.187-.51.333-.85.44a3.64 3.64 0 0 1-1.17.17c-.913 0-1.63-.19-2.15-.57-.52-.387-.806-.983-.86-1.79h1.22Z" fill="#fff"/>
</svg>