<svg width="40" height="40" viewBox="0 0 40 40" fill="none" xmlns="http://www.w3.org/2000/svg">
    <rect x="9" y="2" width="30" height="36" rx="2" fill="#EBEBEB"/>
    <path d="M9 29h30v7a2 2 0 0 1-2 2H11a2 2 0 0 1-2-2v-7Z" fill="#C8C8C8"/>
    <path d="M30 29V2h7a2 2 0 0 1 2 2v25h-9Z" fill="#DDD"/>
    <rect x="1" y="11" width="29" height="19.5" rx="2" fill="#1859A9"/>
    <path d="M8.87 24.93c-.513 0-.977-.083-1.39-.25a3.005 3.005 0 0 1-1.05-.74 3.32 3.32 0 0 1-.68-1.17 5.05 5.05 0 0 1-.23-1.58c0-.587.08-1.113.24-1.58.16-.467.387-.86.68-1.18a2.824 2.824 0 0 1 1.06-.74 3.51 3.51 0 0 1 1.37-.26c.507 0 .967.087 1.38.26.413.167.763.41 1.05.73.287.32.507.713.66 1.18.16.46.24.983.24 1.57 0 .593-.077 1.123-.23 1.59-.153.46-.373.853-.66 1.18-.287.32-.637.567-1.05.74-.407.167-.87.25-1.39.25Zm-.01-1.04c.687 0 1.207-.24 1.56-.72.353-.487.53-1.15.53-1.99 0-.42-.047-.797-.14-1.13a2.44 2.44 0 0 0-.39-.85 1.758 1.758 0 0 0-.65-.54 2.054 2.054 0 0 0-.91-.19c-.347 0-.65.063-.91.19s-.48.307-.66.54a2.438 2.438 0 0 0-.39.85c-.087.333-.13.71-.13 1.13 0 .84.173 1.503.52 1.99.353.48.877.72 1.57.72Zm4.625-6.28h1.12l3.28 5.16v-5.16h1.18v7.14h-1.12l-3.29-5.14v5.14h-1.17v-7.14Zm7.1 0h4.75v1.04h-3.54v1.9h3.34v1.05h-3.34v2.11h3.73l-.14 1.04h-4.8v-7.14Z" fill="#fff"/>
</svg>