<svg width="40" height="40" viewBox="0 0 40 40" fill="none" xmlns="http://www.w3.org/2000/svg">
    <rect x="9" y="2" width="30" height="36" rx="2" fill="#EBEBEB"/>
    <path d="M9 29h30v7a2 2 0 0 1-2 2H11a2 2 0 0 1-2-2v-7Z" fill="#C8C8C8"/>
    <path d="M30 29V2h7a2 2 0 0 1 2 2v25h-9Z" fill="#DDD"/>
    <rect x="1" y="11" width="28" height="19.5" rx="2" fill="#EE7623"/>
    <path d="M5.76 17.61h2.47c.54 0 .983.06 1.33.18.353.12.63.28.83.48.2.2.34.433.42.7.08.26.12.533.12.82 0 .307-.04.6-.12.88-.08.28-.223.527-.43.74-.2.207-.473.373-.82.5-.347.12-.783.18-1.31.18h-1.3v2.66H5.76v-7.14Zm2.46 3.47c.307 0 .557-.03.75-.09.2-.06.357-.143.47-.25a.865.865 0 0 0 .23-.4c.047-.153.07-.327.07-.52 0-.2-.023-.373-.07-.52a.779.779 0 0 0-.25-.38c-.113-.1-.27-.177-.47-.23a2.848 2.848 0 0 0-.74-.08H6.95v2.47h1.27Zm3.868-3.47h1.21v2.89h3.21v-2.89h1.21v7.14h-1.21v-3.13h-3.21v3.13h-1.21v-7.14Zm7.149 0h2.47c.54 0 .983.06 1.33.18.353.12.63.28.83.48.2.2.34.433.42.7.08.26.12.533.12.82 0 .307-.04.6-.12.88-.08.28-.224.527-.43.74-.2.207-.474.373-.82.5-.347.12-.784.18-1.31.18h-1.3v2.66h-1.19v-7.14Zm2.46 3.47c.306 0 .556-.03.75-.09.2-.06.356-.143.47-.25a.866.866 0 0 0 .23-.4c.046-.153.07-.327.07-.52 0-.2-.024-.373-.07-.52a.779.779 0 0 0-.25-.38c-.114-.1-.27-.177-.47-.23a2.848 2.848 0 0 0-.74-.08h-1.26v2.47h1.27Z" fill="#fff"/>
</svg>