<svg width="40" height="40" viewBox="0 0 40 40" fill="none" xmlns="http://www.w3.org/2000/svg">
    <rect x="8.964" y="2" width="29.867" height="36" rx="2" fill="#EBEBEB"/>
    <path d="M8.964 29H38.83v7a2 2 0 0 1-2 2H10.964a2 2 0 0 1-2-2v-7Z" fill="#C8C8C8"/>
    <path d="M29.871 29V2h6.96a2 2 0 0 1 2 2v25h-8.96Z" fill="#DDD"/>
    <rect x=".831" y="11" width="27.217" height="19.5" rx="2" fill="#089BD7"/>
    <path d="M4.831 17.18h2.47c.54 0 .983.06 1.33.18.353.12.63.28.83.48.2.2.34.433.42.7.08.26.12.533.12.82 0 .307-.04.6-.12.88-.08.28-.223.527-.43.74-.2.207-.473.373-.82.5-.347.12-.783.18-1.31.18h-1.3v2.66h-1.19v-7.14Zm2.46 3.47c.307 0 .557-.03.75-.09.2-.06.357-.143.47-.25a.865.865 0 0 0 .23-.4c.047-.153.07-.327.07-.52 0-.2-.023-.373-.07-.52a.778.778 0 0 0-.25-.38c-.113-.1-.27-.177-.47-.23a2.848 2.848 0 0 0-.74-.08h-1.26v2.47h1.27ZM11.16 17.18h1.12l3.28 5.16v-5.16h1.18v7.14h-1.12l-3.29-5.14v5.14h-1.17v-7.14ZM24.169 20.53v2.94c-.367.34-.8.597-1.3.77-.5.173-1.003.26-1.51.26-.554 0-1.04-.087-1.46-.26-.414-.18-.76-.43-1.04-.75-.28-.327-.49-.72-.63-1.18-.14-.46-.21-.977-.21-1.55 0-.58.077-1.1.23-1.56.153-.467.37-.863.65-1.19.28-.327.62-.577 1.02-.75.4-.173.846-.26 1.34-.26.433 0 .81.057 1.13.17.326.107.6.257.82.45.227.193.407.42.54.68.14.253.24.527.3.82l-1.19.17c-.054-.2-.12-.377-.2-.53a1.163 1.163 0 0 0-.75-.64c-.18-.06-.397-.09-.65-.09-.334 0-.627.067-.88.2-.247.127-.454.31-.62.55-.167.24-.29.527-.37.86a4.76 4.76 0 0 0-.12 1.11c0 .42.04.797.12 1.13.08.333.207.62.38.86.173.233.39.413.65.54.267.127.587.19.96.19.333 0 .633-.033.9-.1a2.48 2.48 0 0 0 .77-.37v-1.45h-1.58v-1.02h2.7Z" fill="#fff"/>
</svg>