<svg width="40" height="40" viewBox="0 0 40 40" fill="none" xmlns="http://www.w3.org/2000/svg">
    <rect x="9" y="2" width="30" height="36" rx="2" fill="#EBEBEB"/>
    <path d="M9 29h30v7a2 2 0 0 1-2 2H11a2 2 0 0 1-2-2v-7Z" fill="#C8C8C8"/>
    <path d="M30 29V2h7a2 2 0 0 1 2 2v25h-9Z" fill="#DDD"/>
    <rect x="1" y="11" width="34" height="19.5" rx="2" fill="#005871"/>
    <path d="M5.76 17.61h2.47c.54 0 .983.06 1.33.18.353.12.63.28.83.48.2.2.34.433.42.7.08.26.12.533.12.82 0 .307-.04.6-.12.88-.08.28-.223.527-.43.74-.2.207-.473.373-.82.5-.347.12-.783.18-1.31.18h-1.3v2.66H5.76v-7.14Zm2.46 3.47c.307 0 .557-.03.75-.09.2-.06.357-.143.47-.25a.865.865 0 0 0 .23-.4c.047-.153.07-.327.07-.52 0-.2-.023-.373-.07-.52a.779.779 0 0 0-.25-.38c-.113-.1-.27-.177-.47-.23a2.848 2.848 0 0 0-.74-.08H6.95v2.47h1.27Zm3.868-3.47h2.47c.54 0 .983.06 1.33.18.353.12.63.28.83.48.2.2.34.433.42.7.08.26.12.533.12.82 0 .307-.04.6-.12.88-.08.28-.223.527-.43.74-.2.207-.473.373-.82.5-.347.12-.783.18-1.31.18h-1.3v2.66h-1.19v-7.14Zm2.46 3.47c.307 0 .557-.03.75-.09.2-.06.357-.143.47-.25a.865.865 0 0 0 .23-.4c.047-.153.07-.327.07-.52 0-.2-.023-.373-.07-.52a.778.778 0 0 0-.25-.38c-.113-.1-.27-.177-.47-.23a2.848 2.848 0 0 0-.74-.08h-1.26v2.47h1.27Zm4.958-3.47v4.28c0 .673.12 1.177.36 1.51.247.327.66.49 1.24.49.574 0 .977-.163 1.21-.49.24-.333.36-.837.36-1.51v-4.28h1.21v4.28c0 .553-.066 1.023-.2 1.41-.133.38-.323.693-.57.94-.246.24-.54.413-.88.52-.34.113-.72.17-1.14.17-.913 0-1.606-.243-2.08-.73-.473-.493-.71-1.273-.71-2.34v-4.25h1.2Zm5.795 0h2.47c.52 0 .947.05 1.28.15.333.093.597.227.79.4.2.167.337.367.41.6.073.227.11.47.11.73 0 .3-.067.58-.2.84-.133.253-.377.463-.73.63.227.1.413.213.56.34.147.127.263.263.35.41.087.14.147.29.18.45a2.439 2.439 0 0 1-.09 1.3c-.087.26-.233.487-.44.68a2.293 2.293 0 0 1-.81.45c-.333.107-.743.16-1.23.16h-2.65v-7.14Zm2.61 2.93c.473 0 .803-.087.99-.26.187-.173.28-.423.28-.75 0-.34-.11-.583-.33-.73-.213-.153-.587-.23-1.12-.23h-1.26v1.97h1.44Zm0 3.24c.287 0 .523-.027.71-.08a1.06 1.06 0 0 0 .45-.23c.113-.1.193-.22.24-.36.047-.14.07-.297.07-.47 0-.36-.103-.633-.31-.82-.2-.193-.55-.29-1.05-.29h-1.55v2.25h1.44Z" fill="#fff"/>
</svg>