<svg width="40" height="40" viewBox="0 0 40 40" fill="none" xmlns="http://www.w3.org/2000/svg">
    <rect x="9" y="2" width="30" height="36" rx="2" fill="#EBEBEB"/>
    <path d="M9 29h30v7a2 2 0 0 1-2 2H11a2 2 0 0 1-2-2v-7Z" fill="#C8C8C8"/>
    <path d="M30 29V2h7a2 2 0 0 1 2 2v25h-9Z" fill="#DDD"/>
    <rect x="1" y="11" width="22" height="19.5" rx="2" fill="#303030"/>
    <path d="M12.03 23.38v1.37h-1.17v-1.37h1.17Zm-1.14-.98c0-.18.023-.343.07-.49.053-.153.12-.29.2-.41.087-.127.18-.247.28-.36a15.8 15.8 0 0 1 .33-.34l.29-.29c.133-.133.247-.28.34-.44.093-.16.14-.363.14-.61 0-.32-.09-.567-.27-.74-.173-.18-.42-.27-.74-.27-.393 0-.69.09-.89.27-.2.173-.347.46-.44.86l-1.05-.14a2.83 2.83 0 0 1 .24-.74c.113-.24.263-.45.45-.63.193-.18.427-.32.7-.42.28-.107.613-.16 1-.16.693 0 1.23.17 1.61.51.38.333.57.773.57 1.32 0 .32-.05.59-.15.81-.093.22-.21.407-.35.56l-.61.61c-.173.173-.317.35-.43.53a1.14 1.14 0 0 0-.17.62v.15h-1.12v-.2Z" fill="#fff"/>
</svg>