<svg width="40" height="40" viewBox="0 0 40 40" fill="none" xmlns="http://www.w3.org/2000/svg">
    <rect x="9" y="2" width="30" height="36" rx="2" fill="#EBEBEB"/>
    <path d="M9 29h30v7a2 2 0 0 1-2 2H11a2 2 0 0 1-2-2v-7Z" fill="#C8C8C8"/>
    <path d="M30 29V2h7a2 2 0 0 1 2 2v25h-9Z" fill="#DDD"/>
    <rect x="1" y="11" width="28" height="19.5" rx="2" fill="#291446"/>
    <path d="M6.85 17.61v4.28c0 .673.12 1.177.36 1.51.247.327.66.49 1.24.49.573 0 .977-.163 1.21-.49.24-.333.36-.837.36-1.51v-4.28h1.21v4.28c0 .553-.067 1.023-.2 1.41-.133.38-.323.693-.57.94-.247.24-.54.413-.88.52-.34.113-.72.17-1.14.17-.913 0-1.607-.243-2.08-.73-.473-.493-.71-1.273-.71-2.34v-4.25h1.2Zm8.325 3.3c.273 0 .5-.027.68-.08.18-.06.32-.14.42-.24a.842.842 0 0 0 .22-.38c.046-.147.07-.31.07-.49 0-.167-.027-.317-.08-.45a.727.727 0 0 0-.25-.35 1.146 1.146 0 0 0-.46-.23 2.755 2.755 0 0 0-.72-.08h-1.22v2.3h1.34Zm-.09-3.3c.54 0 .983.063 1.33.19.353.127.63.293.83.5.206.2.35.423.43.67.08.247.12.49.12.73 0 .467-.094.857-.28 1.17-.18.313-.474.567-.88.76l1.48 3.12h-1.32l-1.28-2.84-.19.02h-1.49v2.82h-1.19v-7.14h2.44Zm5.195 0v6.09h3.54l-.15 1.05h-4.6v-7.14h1.21Z" fill="#fff"/>
</svg>