<svg width="40" height="40" viewBox="0 0 40 40" fill="none" xmlns="http://www.w3.org/2000/svg">
    <rect x="9" y="2" width="30" height="36" rx="2" fill="#EBEBEB"/>
    <path d="M9 29h30v7a2 2 0 0 1-2 2H11a2 2 0 0 1-2-2v-7Z" fill="#C8C8C8"/>
    <path d="M30 29V2h7a2 2 0 0 1 2 2v25h-9Z" fill="#DDD"/>
    <rect x="1" y="11" width="28" height="19.5" rx="2" fill="#291446"/>
    <path d="m6.46 17.61 1.96 5.5 1.99-5.5h1.29l-2.71 7.14H7.83l-2.72-7.14h1.35Zm6.116 0h2.47c.54 0 .984.06 1.33.18.354.12.63.28.83.48.2.2.34.433.42.7.08.26.12.533.12.82 0 .307-.04.6-.12.88-.08.28-.223.527-.43.74-.2.207-.473.373-.82.5-.346.12-.783.18-1.31.18h-1.3v2.66h-1.19v-7.14Zm2.46 3.47c.307 0 .557-.03.75-.09.2-.06.357-.143.47-.25a.866.866 0 0 0 .23-.4c.047-.153.07-.327.07-.52 0-.2-.023-.373-.07-.52a.779.779 0 0 0-.25-.38c-.113-.1-.27-.177-.47-.23a2.848 2.848 0 0 0-.74-.08h-1.26v2.47h1.27Zm5.298-.1-2.32-3.37h1.38l1.64 2.5 1.66-2.5h1.3l-2.3 3.42 2.58 3.72h-1.39l-1.9-2.82-1.84 2.82h-1.31l2.5-3.77Z" fill="#fff"/>
</svg>