<svg width="40" height="40" viewBox="0 0 40 40" fill="none" xmlns="http://www.w3.org/2000/svg">
    <rect x="9" y="2" width="30" height="36" rx="2" fill="#EBEBEB"/>
    <path d="M9 29h30v7a2 2 0 0 1-2 2H11a2 2 0 0 1-2-2v-7Z" fill="#C8C8C8"/>
    <path d="M30 29V2h7a2 2 0 0 1 2 2v25h-9Z" fill="#DDD"/>
    <rect x="1" y="11" width="29" height="19.5" rx="2" fill="#00754A"/>
    <path d="m6.46 17.61 1.96 5.5 1.99-5.5h1.29l-2.71 7.14H7.83l-2.72-7.14h1.35Zm6.809 4.96c.053.467.22.807.5 1.02.286.213.71.32 1.27.32.273 0 .503-.03.69-.09.186-.06.336-.14.45-.24a.827.827 0 0 0 .24-.35c.046-.14.07-.287.07-.44 0-.113-.017-.223-.05-.33a.774.774 0 0 0-.18-.31 1.082 1.082 0 0 0-.35-.24 2.068 2.068 0 0 0-.56-.17l-.91-.17c-.36-.067-.68-.15-.96-.25-.28-.1-.517-.23-.71-.39a1.683 1.683 0 0 1-.43-.6c-.094-.24-.14-.53-.14-.87 0-.34.066-.637.2-.89.14-.253.33-.463.57-.63.24-.173.523-.3.85-.38a4.28 4.28 0 0 1 1.08-.13c.493 0 .906.057 1.24.17.333.113.603.263.81.45.206.18.363.39.47.63.106.24.18.49.22.75l-1.14.18c-.094-.4-.257-.697-.49-.89-.227-.193-.59-.29-1.09-.29-.287 0-.527.027-.72.08-.187.047-.34.117-.46.21a.793.793 0 0 0-.25.31.935.935 0 0 0-.07.36c0 .313.083.547.25.7.173.153.473.273.9.36l.99.19c.753.14 1.306.38 1.66.72.353.333.53.817.53 1.45 0 .3-.057.58-.17.84a1.79 1.79 0 0 1-.5.67c-.227.187-.51.333-.85.44a3.64 3.64 0 0 1-1.17.17c-.914 0-1.63-.19-2.15-.57-.52-.387-.807-.983-.86-1.79h1.22Zm8.025 1.15c.42 0 .777-.06 1.07-.18.3-.12.544-.293.73-.52.194-.227.334-.497.42-.81.087-.313.13-.667.13-1.06 0-.787-.166-1.4-.5-1.84-.333-.447-.88-.67-1.64-.67h-1.38v5.08h1.17Zm.2-6.11c.527 0 1 .073 1.42.22.42.14.777.357 1.07.65.294.293.517.663.67 1.11.16.44.24.957.24 1.55 0 .593-.083 1.117-.25 1.57a3.045 3.045 0 0 1-.72 1.13c-.313.3-.696.527-1.15.68-.446.153-.953.23-1.52.23h-2.34v-7.14h2.58Z" fill="#fff"/>
</svg>