<svg width="40" height="40" viewBox="0 0 40 40" fill="none" xmlns="http://www.w3.org/2000/svg">
    <rect x="8.6" y="2" width="30.4" height="36" rx="2" fill="#EBEBEB"/>
    <path d="M8.6 29H39v7a2 2 0 0 1-2 2H10.6a2 2 0 0 1-2-2v-7Z" fill="#C8C8C8"/>
    <path d="M29.88 29V2H37a2 2 0 0 1 2 2v25h-9.12Z" fill="#DDD"/>
    <rect x="1" y="11" width="28.373" height="19.5" rx="2" fill="#00754A"/>
    <path d="m6.46 17.61 1.96 5.5 1.99-5.5h1.29l-2.71 7.14H7.83l-2.72-7.14h1.35Zm6.809 4.96c.053.467.22.807.5 1.02.286.213.71.32 1.27.32.273 0 .503-.03.69-.09.186-.06.336-.14.45-.24a.827.827 0 0 0 .24-.35c.046-.14.07-.287.07-.44 0-.113-.017-.223-.05-.33a.774.774 0 0 0-.18-.31 1.082 1.082 0 0 0-.35-.24 2.068 2.068 0 0 0-.56-.17l-.91-.17c-.36-.067-.68-.15-.96-.25-.28-.1-.517-.23-.71-.39a1.683 1.683 0 0 1-.43-.6c-.094-.24-.14-.53-.14-.87 0-.34.066-.637.2-.89.14-.253.33-.463.57-.63.24-.173.523-.3.85-.38a4.28 4.28 0 0 1 1.08-.13c.493 0 .906.057 1.24.17.333.113.603.263.81.45.206.18.363.39.47.63.106.24.18.49.22.75l-1.14.18c-.094-.4-.257-.697-.49-.89-.227-.193-.59-.29-1.09-.29-.287 0-.527.027-.72.08-.187.047-.34.117-.46.21a.793.793 0 0 0-.25.31.935.935 0 0 0-.07.36c0 .313.083.547.25.7.173.153.473.273.9.36l.99.19c.753.14 1.306.38 1.66.72.353.333.53.817.53 1.45 0 .3-.057.58-.17.84a1.79 1.79 0 0 1-.5.67c-.227.187-.51.333-.85.44a3.64 3.64 0 0 1-1.17.17c-.914 0-1.63-.19-2.15-.57-.52-.387-.807-.983-.86-1.79h1.22Zm6.533 0c.053.467.22.807.5 1.02.287.213.71.32 1.27.32.273 0 .503-.03.69-.09.187-.06.337-.14.45-.24a.827.827 0 0 0 .24-.35c.047-.14.07-.287.07-.44 0-.113-.017-.223-.05-.33a.774.774 0 0 0-.18-.31 1.082 1.082 0 0 0-.35-.24 2.068 2.068 0 0 0-.56-.17l-.91-.17c-.36-.067-.68-.15-.96-.25-.28-.1-.517-.23-.71-.39a1.683 1.683 0 0 1-.43-.6c-.093-.24-.14-.53-.14-.87 0-.34.067-.637.2-.89.14-.253.33-.463.57-.63.24-.173.523-.3.85-.38a4.28 4.28 0 0 1 1.08-.13c.493 0 .907.057 1.24.17.333.113.603.263.81.45.207.18.363.39.47.63.107.24.18.49.22.75l-1.14.18c-.093-.4-.257-.697-.49-.89-.227-.193-.59-.29-1.09-.29-.287 0-.527.027-.72.08-.187.047-.34.117-.46.21a.793.793 0 0 0-.25.31.935.935 0 0 0-.07.36c0 .313.083.547.25.7.173.153.473.273.9.36l.99.19c.753.14 1.307.38 1.66.72.353.333.53.817.53 1.45 0 .3-.057.58-.17.84a1.79 1.79 0 0 1-.5.67c-.227.187-.51.333-.85.44a3.64 3.64 0 0 1-1.17.17c-.913 0-1.63-.19-2.15-.57-.52-.387-.807-.983-.86-1.79h1.22Z" fill="#fff"/>
</svg>