<svg width="40" height="40" viewBox="0 0 40 40" fill="none" xmlns="http://www.w3.org/2000/svg">
    <path d="M9 4a2 2 0 0 1 2-2h26a2 2 0 0 1 2 2v7H9V4Z" fill="url(#paint0_linear_6042_16827)"/>
    <path fill="url(#paint1_linear_6042_16827)" d="M9 11h30v9H9z"/>
    <path fill="url(#paint2_linear_6042_16827)" d="M9 20h30v9H9z"/>
    <path d="M9 29h30v7a2 2 0 0 1-2 2H11a2 2 0 0 1-2-2v-7Z" fill="url(#paint3_linear_6042_16827)"/>
    <path d="M21 10v18a2 2 0 0 1-2 2H1" stroke="url(#paint4_linear_6042_16827)"/>
    <rect x="1" y="10" width="20" height="20" rx="2" fill="url(#paint5_linear_6042_16827)"/>
    <path d="m6.052 15 1.991 8.35 2.052-8.288h1.946l2.082 8.273L16.053 15H18l-2.972 11h-1.825l-2.188-8.658L8.858 26H7.093L4 15h2.052Z" fill="#fff"/>
    <defs>
        <linearGradient id="paint0_linear_6042_16827" x1="24" y1="2" x2="24" y2="11" gradientUnits="userSpaceOnUse">
            <stop stop-color="#0082C8"/>
            <stop offset="1" stop-color="#009BE6"/>
        </linearGradient>
        <linearGradient id="paint1_linear_6042_16827" x1="24" y1="11" x2="24" y2="20" gradientUnits="userSpaceOnUse">
            <stop stop-color="#0262AA"/>
            <stop offset="1" stop-color="#0188DF"/>
        </linearGradient>
        <linearGradient id="paint2_linear_6042_16827" x1="24" y1="20" x2="24" y2="29" gradientUnits="userSpaceOnUse">
            <stop stop-color="#0656AB"/>
            <stop offset="1" stop-color="#0765C1"/>
        </linearGradient>
        <linearGradient id="paint3_linear_6042_16827" x1="24" y1="29" x2="24" y2="38" gradientUnits="userSpaceOnUse">
            <stop stop-color="#0A3B84"/>
            <stop offset="1" stop-color="#0C4CA6"/>
        </linearGradient>
        <linearGradient id="paint4_linear_6042_16827" x1="21" y1="30" x2="12.5" y2="21.5" gradientUnits="userSpaceOnUse">
            <stop stop-color="#fff" stop-opacity=".22"/>
            <stop offset="1" stop-color="#fff" stop-opacity="0"/>
        </linearGradient>
        <linearGradient id="paint5_linear_6042_16827" x1="1" y1="16" x2="21" y2="29" gradientUnits="userSpaceOnUse">
            <stop stop-color="#0B3166"/>
            <stop offset="1" stop-color="#024C9A"/>
        </linearGradient>
    </defs>
</svg>