<svg width="40" height="40" viewBox="0 0 40 40" fill="none" xmlns="http://www.w3.org/2000/svg">
    <rect x="9" y="2" width="30" height="36" rx="2" fill="#EBEBEB"/>
    <path d="M9 29h30v7a2 2 0 0 1-2 2H11a2 2 0 0 1-2-2v-7Z" fill="#C8C8C8"/>
    <path d="M30 29V2h7a2 2 0 0 1 2 2v25h-9Z" fill="#DDD"/>
    <rect x="1" y="11" width="29" height="19.5" rx="2" fill="#EE7623"/>
    <path d="m7.59 20.98-2.32-3.37h1.38l1.64 2.5 1.66-2.5h1.3l-2.3 3.42 2.58 3.72h-1.39l-1.9-2.82-1.84 2.82H5.09l2.5-3.77Zm4.781-3.37h1.47l2.03 5.68 2.09-5.68h1.42v7.14h-1.11v-5.19l-1.96 5.19h-.96l-1.89-5.18v5.18h-1.09v-7.14Zm9.736 0v6.09h3.54l-.15 1.05h-4.6v-7.14h1.21Z" fill="#fff"/>
</svg>