<svg width="80" height="80" viewBox="0 0 80 80" fill="none" xmlns="http://www.w3.org/2000/svg">
  <path d="M39.9999 79.1349C61.6136 79.1349 79.1349 61.6136 79.1349 40C79.1349 18.3864 61.6136 0.865051 39.9999 0.865051C18.3863 0.865051 0.86499 18.3864 0.86499 40C0.86499 61.6136 18.3863 79.1349 39.9999 79.1349Z" fill="#F0F8FF"/>
  <path d="M28.6383 69.8988L56.552 62.0418C58.6325 61.4562 59.8444 59.2949 59.2587 57.2144L49.2986 21.8286C49.0174 20.8295 48.3508 19.983 47.4455 19.4754L39.7905 15.1832C38.8852 14.6756 37.8153 14.5484 36.8162 14.8296L14.8761 21.0051C12.7956 21.5908 11.5837 23.7521 12.1694 25.8326L23.8109 67.192C24.3965 69.2725 26.5578 70.4844 28.6383 69.8988Z" fill="#DEE7FA"/>
  <g style="mix-blend-mode:overlay">
    <path d="M47.1466 64.5943L27.0339 65.5586C25.012 65.6555 23.3104 64.0615 23.2753 62.0376L22.5242 18.7738L25.1332 18.1215L27.253 53.0168L50.7339 63.6159L47.1466 64.5943Z" fill="black"/>
  </g>
  <path d="M26.7325 64.1897H60.7141C61.957 64.1897 62.9646 63.1821 62.9646 61.9391V20.923C62.9646 20.3261 62.7275 19.7536 62.3055 19.3316L54.7432 11.7693C54.3211 11.3472 53.7487 11.1101 53.1518 11.1101H26.7325C25.4896 11.1101 24.4819 12.1177 24.4819 13.3607V61.9391C24.4819 63.1821 25.4896 64.1897 26.7325 64.1897Z" fill="white"/>
  <path d="M54.084 11.1101L62.9646 19.9907H56.3346C55.0916 19.9907 54.084 18.9831 54.084 17.7402V11.1101Z" fill="#DEE7FA"/>
  <path d="M29.0466 19.2303C29.0466 18.3478 29.7621 17.6323 30.6446 17.6323H43.7548C44.6374 17.6323 45.3529 18.3478 45.3529 19.2303C45.3529 20.1129 44.6374 20.8283 43.7549 20.8283H30.6446C29.7621 20.8283 29.0466 20.1129 29.0466 19.2303Z" fill="#BCCEF5"/>
  <path d="M29.0466 28.2966C29.0466 27.414 29.7621 26.6986 30.6446 26.6986H57.4521C58.3346 26.6986 59.0501 27.414 59.0501 28.2966C59.0501 29.1792 58.3346 29.8946 57.4521 29.8946H30.6446C29.7621 29.8946 29.0466 29.1792 29.0466 28.2966Z" fill="#E9EFFC"/>
  <path d="M29.0466 37.3629C29.0466 36.4803 29.7621 35.7649 30.6446 35.7649H57.4521C58.3346 35.7649 59.0501 36.4803 59.0501 37.3629C59.0501 38.2454 58.3346 38.9609 57.4521 38.9609H30.6446C29.7621 38.9609 29.0466 38.2454 29.0466 37.3629Z" fill="#E9EFFC"/>
  <path d="M29.0466 46.4291C29.0466 45.5466 29.7621 44.8311 30.6446 44.8311H57.4521C58.3346 44.8311 59.0501 45.5466 59.0501 46.4291C59.0501 47.3117 58.3346 48.0271 57.4521 48.0271H30.6446C29.7621 48.0271 29.0466 47.3117 29.0466 46.4291Z" fill="#E9EFFC"/>
  <path d="M29.0466 55.4954C29.0466 54.6128 29.7621 53.8974 30.6446 53.8974H57.4521C58.3346 53.8974 59.0501 54.6128 59.0501 55.4954C59.0501 56.3779 58.3346 57.0934 57.4521 57.0934H30.6446C29.7621 57.0934 29.0466 56.3779 29.0466 55.4954Z" fill="#E9EFFC"/>
  <path d="M54.6726 40.8635C56.175 38.2343 59.966 38.2343 61.4684 40.8635L74.2922 63.3051C75.783 65.9141 73.8992 69.1603 70.8943 69.1603H45.2467C42.2418 69.1603 40.358 65.9141 41.8488 63.3051L54.6726 40.8635Z" fill="#1186FA"/>
  <path d="M58.0581 61.0919C58.9358 61.0919 59.6473 61.7887 59.6473 62.6482V62.7119C59.6473 63.5714 58.9358 64.2682 58.0581 64.2682C57.1804 64.2682 56.4689 63.5714 56.4689 62.7119V62.6482C56.4689 61.7887 57.1804 61.0919 58.0581 61.0919ZM58.0718 46.0052C58.9828 46.0052 59.7172 46.7363 59.7022 47.6283L59.5339 57.6439C59.5208 58.4255 58.87 59.0524 58.0718 59.0524C57.2735 59.0524 56.6228 58.4255 56.6096 57.6439L56.4414 47.6283C56.4264 46.7363 57.1607 46.0052 58.0718 46.0052Z" fill="white"/>
</svg>
