<svg width="103" height="81" viewBox="0 0 103 81" fill="none" xmlns="http://www.w3.org/2000/svg">
<path d="M8.06985 13.5967C16.2895 13.5967 16.2895 14.1119 17.2924 12.1023L20.6324 1.49448C20.9124 0.605245 21.7394 0.00012207 22.6748 0.00012207H95.0078C96.2689 0.00012207 97.2566 1.08093 97.1389 2.33199L91.1188 66.3157C91.0157 67.4117 90.0924 68.2494 88.9876 68.2494H11.593C10.4873 68.2494 9.56365 67.4104 9.46161 66.3135L4.7747 15.9263C4.6584 14.676 5.64588 13.5967 6.90606 13.5967H8.06985Z" fill="#BFD1F7"/>
<path d="M23.4318 26.2438C24.3671 26.2438 25.1941 25.6386 25.4741 24.7494L28.8141 14.1416C29.0941 13.2523 29.9211 12.6472 30.8565 12.6472H100.781C102.042 12.6472 103.03 13.728 102.912 14.9791L96.8923 78.9628C96.7892 80.0588 95.866 80.8965 94.7612 80.8965H7.69039C6.58476 80.8965 5.66106 80.0575 5.55902 78.9606L0.872109 28.5734C0.75581 27.3231 1.74329 26.2438 3.00347 26.2438H23.4318Z" fill="#DEE7FA"/>
<path d="M48.3757 52.1212C48.3757 51.1682 48.5178 50.3172 48.802 49.5684C49.0861 48.7856 49.4591 48.0708 49.9208 47.4241C50.4181 46.7434 50.9509 46.1137 51.5192 45.5351C52.1231 44.9564 52.7447 44.3778 53.384 43.7992C53.8458 43.3567 54.272 42.9483 54.6627 42.5738C55.089 42.1654 55.4619 41.7399 55.7816 41.2975C56.1013 40.821 56.3499 40.3104 56.5275 39.7658C56.7051 39.2212 56.7939 38.5915 56.7939 37.8768C56.7939 36.5834 56.3854 35.5793 55.5685 34.8645C54.787 34.1157 53.7214 33.7413 52.3717 33.7413C50.5602 33.7413 49.1572 34.1327 48.1626 34.9156C47.2036 35.6984 46.511 37.0769 46.0847 39.051L39.2117 38.2342C39.4958 36.7706 39.9398 35.4091 40.5437 34.1497C41.1475 32.8563 41.9644 31.7501 42.9945 30.8311C44.0601 29.8781 45.3566 29.1293 46.8839 28.5847C48.4468 28.0401 50.2938 27.7678 52.425 27.7678C56.2256 27.7678 59.1915 28.6017 61.3227 30.2695C63.4894 31.9373 64.5727 34.2008 64.5727 37.0599C64.5727 38.1491 64.4484 39.1021 64.1997 39.919C63.9866 40.7359 63.6847 41.4677 63.294 42.1144C62.9033 42.727 62.4593 43.2886 61.962 43.7992C61.4647 44.3097 60.9497 44.8203 60.4169 45.3308C59.7776 45.9435 59.1737 46.5221 58.6054 47.0667C58.0371 47.6113 57.5398 48.1729 57.1136 48.7515C56.6873 49.2961 56.3499 49.8748 56.1013 50.4874C55.8526 51.066 55.7283 51.7127 55.7283 52.4275V53.2955H48.3757V52.1212ZM48.3225 56.7162H55.675V64.834H48.3225V56.7162Z" fill="#BFD1F7"/>
</svg>
