<svg width="200" height="200" viewBox="0 0 200 200" fill="none" xmlns="http://www.w3.org/2000/svg">
  <path d="m182.5 60-2.501 130.005-15.91-98.065-24.09-66.935 9.999.002L182.5 60Z" fill="#000" fill-opacity=".15"/>
  <path d="M25.104 32.507c.042-4.21 5.705-7.502 9.897-7.505L145 25 180 65v130c-.057 4.219-2.53 25.927-6.731 25.903L32.694 220.1c-4.23-.025-7.632-3.495-7.59-7.744V32.506Z" fill="#F5F7F9"/>
  <path d="M146.19 57.14 145 25l35 40-23.455 1.894c-5.535.157-10.157-4.196-10.355-9.754Z" fill="#C2C8D4"/>
  <path d="M131.725 109.37c-5.452-10.074-16.188-10.082-21.654-.016l-38.32 70.569 98.193.073-38.219-70.626ZM84.472 74.73c.008 10.895-8.819 19.734-19.715 19.742-10.895.008-19.735-8.818-19.743-19.714-.008-10.896 8.819-19.735 19.715-19.743 10.895-.008 19.735 8.818 19.743 19.714Z" fill="#5CADFD"/>
  <path d="M96.349 143.983c-7.025-7.55-20.776-7.56-27.812-.021L35 179.902l94.837.071-33.487-35.99Z" fill="#095FF9"/>
</svg>
