<svg width="125" height="129" viewBox="0 0 125 129" fill="none" xmlns="http://www.w3.org/2000/svg">
<path d="M37.2943 62C38.2232 62 39.0445 61.3991 39.3226 60.516L42.6394 49.9815C42.9175 49.0984 43.7388 48.4974 44.6677 48.4974H116.501C117.753 48.4974 118.734 49.5708 118.617 50.8132L112.639 114.355C112.536 115.443 111.619 116.275 110.522 116.275H40.7931C39.6951 116.275 38.7778 115.442 38.6765 114.352L34.0219 64.3135C33.9065 63.0719 34.8871 62 36.1386 62H37.2943Z" fill="#DEE7FA"/>
<path d="M0.806602 76.4331C-0.113772 75.7073 -0.269584 74.3756 0.458547 73.4583L25.0472 42.4822C25.776 41.5641 27.114 41.4091 28.0347 42.1361L81.0406 83.9895C81.9575 84.7135 82.1149 86.0395 81.3929 86.9567L56.9566 117.999C56.2298 118.922 54.8883 119.081 53.9648 118.353L0.806602 76.4331Z" fill="#1186FA"/>
<g style="mix-blend-mode:overlay">
<path d="M34.0731 79.4735L15.7389 54.3217L13.0818 57.4987L30.0874 81.8563L34.0731 79.4735Z" fill="#455664"/>
</g>
<path d="M13.34 51.5182C12.6508 50.5735 12.8591 49.2513 13.8057 48.5624L62.5897 13.0595C63.5393 12.3685 64.8715 12.5768 65.5629 13.5246L117.994 85.393C118.683 86.3376 118.475 87.6599 117.528 88.3487L68.7444 123.852C67.7948 124.543 66.4626 124.334 65.7712 123.387L13.34 51.5182Z" fill="#1186FA"/>
<path d="M27.7582 56.857C27.2811 57.1972 27.1709 57.8582 27.512 58.3338L28.9532 60.3437C29.2947 60.8198 29.959 60.9298 30.4366 60.5892L69.1122 33.0088C69.5893 32.6685 69.6995 32.0075 69.3584 31.5319L67.9172 29.522C67.5757 29.0459 66.9114 28.9359 66.4338 29.2765L27.7582 56.857Z" fill="#F7F9FA"/>
<path d="M21.9383 50.0414C21.4616 50.3817 21.3516 51.0425 21.6925 51.5179L23.1338 53.5278C23.4753 54.0041 24.1399 54.114 24.6176 53.773L40.905 42.1465C41.3818 41.8062 41.4918 41.1454 41.1508 40.6699L39.7096 38.6601C39.368 38.1838 38.7034 38.0739 38.2258 38.4149L21.9383 50.0414Z" fill="#F7F9FA"/>
<path d="M33.7592 64.9273C33.2821 65.2675 33.1719 65.9285 33.513 66.4042L34.9542 68.414C35.2957 68.8902 35.96 69.0001 36.4376 68.6595L75.1132 41.0791C75.5903 40.7389 75.7005 40.0779 75.3594 39.6022L73.9182 37.5924C73.5767 37.1162 72.9124 37.0063 72.4348 37.3469L33.7592 64.9273Z" fill="#F7F9FA"/>
<g style="mix-blend-mode:overlay">
<path d="M49.4846 75.2377L29.5561 37.1128L26.6333 39.2308L46.8275 77.3557L49.4846 75.2377Z" fill="#455664"/>
</g>
<path d="M26.0276 31.3042C25.4808 30.2711 25.8765 28.9921 26.9121 28.445L80.2843 0.247206C81.3232 -0.301654 82.6119 0.0941394 83.1604 1.13051L124.754 79.7226C125.301 80.7557 124.905 82.0347 123.87 82.5818L70.4975 110.78C69.4587 111.328 68.1699 110.933 67.6215 109.896L26.0276 31.3042Z" fill="#1186FA"/>
<path d="M39.5326 38.6392C39.0117 38.9081 38.8079 39.5466 39.0773 40.0659L40.2157 42.2602C40.4854 42.7801 41.1272 42.9834 41.6487 42.7143L83.8806 20.9195C84.4016 20.6507 84.6054 20.0121 84.336 19.4928L83.1976 17.2985C82.9278 16.7787 82.2861 16.5753 81.7646 16.8445L39.5326 38.6392Z" fill="#F7F9FA"/>
<path d="M34.7491 31.0654C34.2285 31.3344 34.0249 31.9727 34.2942 32.4918L35.4326 34.6862C35.7024 35.2062 36.3445 35.4095 36.8661 35.14L54.6529 25.9501C55.1735 25.6811 55.3771 25.0428 55.1078 24.5237L53.9693 22.3293C53.6995 21.8093 53.0575 21.606 52.5359 21.8755L34.7491 31.0654Z" fill="#F7F9FA"/>
<path d="M44.3154 47.4807C43.7945 47.7495 43.5907 48.3881 43.8601 48.9074L44.9985 51.1017C45.2682 51.6216 45.91 51.8249 46.4315 51.5558L88.6635 29.761C89.1844 29.4922 89.3882 28.8536 89.1188 28.3343L87.9804 26.14C87.7107 25.6201 87.0689 25.4168 86.5474 25.6859L44.3154 47.4807Z" fill="#F7F9FA"/>
<path d="M49.0983 56.4824C48.5773 56.7512 48.3735 57.3898 48.6429 57.9091L49.7814 60.1034C50.0511 60.6233 50.6928 60.8266 51.2144 60.5575L93.4463 38.7627C93.9673 38.4939 94.1711 37.8553 93.9017 37.336L92.7632 35.1417C92.4935 34.6218 91.8518 34.4185 91.3302 34.6876L49.0983 56.4824Z" fill="#F7F9FA"/>
<path d="M54.944 66.5431C54.423 66.812 54.2192 67.4505 54.4886 67.9698L55.6271 70.1641C55.8968 70.684 56.5385 70.8873 57.06 70.6182L99.292 48.8234C99.813 48.5546 100.017 47.916 99.7473 47.3967L98.6089 45.2024C98.3392 44.6826 97.6975 44.4792 97.1759 44.7484L54.944 66.5431Z" fill="#F7F9FA"/>
<path d="M60.2582 77.6629C59.7373 77.9317 59.5335 78.5703 59.8029 79.0896L60.9413 81.2839C61.211 81.8037 61.8528 82.0071 62.3743 81.738L104.606 59.9432C105.127 59.6743 105.331 59.0358 105.062 58.5165L103.923 56.3222C103.653 55.8023 103.012 55.599 102.49 55.8681L60.2582 77.6629Z" fill="#F7F9FA"/>
<path d="M45.4191 74.5597C46.348 74.5597 47.1693 73.9587 47.4473 73.0757L50.7642 62.5412C51.0422 61.6581 51.8636 61.0571 52.7924 61.0571H122.234C123.486 61.0571 124.467 62.1305 124.35 63.3729L118.372 126.914C118.269 128.003 117.353 128.835 116.255 128.835H29.7865C28.6885 128.835 27.7712 128.001 27.6699 126.912L23.0154 76.8732C22.8999 75.6316 23.8805 74.5597 25.132 74.5597H45.4191Z" fill="#DEE7FA"/>
<circle cx="74" cy="96" r="15" fill="#BFD1F7"/>
<path d="M65.4556 96.7857L70.8837 102.266L82.5442 90.4937" stroke="#DEE7FA" stroke-width="3.04054" stroke-linecap="round" stroke-linejoin="round"/>
</svg>
