<svg width="120" height="120" fill="none" xmlns="http://www.w3.org/2000/svg">
  <path d="M29.545 14.673a1.98 1.98 0 0 1 2.363-1.501l73.42 16.372a1.98 1.98 0 0 1 1.501 2.363l-16.373 73.42a1.98 1.98 0 0 1-2.363 1.501l-73.42-16.372a1.98 1.98 0 0 1-1.5-2.363l16.372-73.42Z" fill="#DEE7FA"/>
  <path fill-rule="evenodd" clip-rule="evenodd" d="m15.014 79.041 10.878-48.78 46.42-8.217 13.56 3.023 9.87 55.76-4.058 18.201-21.156 3.745L17.105 90.86 15.014 79.04Z" fill="#C9DAFF"/>
  <path d="M4.98 39.518a1.98 1.98 0 0 1 1.605-2.294l74.072-13.112a1.98 1.98 0 0 1 2.294 1.604l13.112 74.072a1.979 1.979 0 0 1-1.605 2.294l-74.072 13.112a1.98 1.98 0 0 1-2.294-1.604L4.981 39.518Z" fill="#DEE7FA"/>
  <path d="M15.883 55.681a1.98 1.98 0 0 1 1.604-2.294l58.478-10.351a1.98 1.98 0 0 1 2.294 1.604l5.176 29.239a1.98 1.98 0 0 1-1.604 2.294L23.353 86.524a1.98 1.98 0 0 1-2.294-1.604l-5.176-29.239Z" fill="#1186FA"/>
  <path d="M19.748 43.438a.99.99 0 0 1 .802-1.147l22.416-3.968a.99.99 0 0 1 1.147.802l.346 1.95a.99.99 0 0 1-.803 1.146L21.24 46.19a.99.99 0 0 1-1.147-.802l-.345-1.95ZM22.784 94.666a.99.99 0 0 1 .802-1.147l28.264-5.003a.99.99 0 0 1 1.147.802l.345 1.95a.99.99 0 0 1-.802 1.147l-28.264 5.003a.99.99 0 0 1-1.147-.803l-.345-1.949ZM24.078 101.976a.99.99 0 0 1 .802-1.147l60.427-10.696a.99.99 0 0 1 1.147.802l.345 1.95a.99.99 0 0 1-.802 1.146L25.57 104.727a.989.989 0 0 1-1.147-.802l-.345-1.949ZM17.97 44.758a1.98 1.98 0 1 1-3.899.69 1.98 1.98 0 0 1 3.9-.69Z" fill="#fff"/>
  <path d="M56.834 68.166c1.503-2.874 5.319-3.55 7.717-1.366l11.433 10.408-26.315 4.658 7.165-13.7Z" fill="#095FF9"/>
  <path d="M56.693 56.248a3.217 3.217 0 1 1-6.335 1.121 3.217 3.217 0 0 1 6.335-1.121ZM38.741 65.388c1.5-2.892 5.336-3.57 7.738-1.37l16.834 15.433-35.086 6.21L38.74 65.389Z" fill="#5CADFD"/>
  <path d="M107.391 98.73c0 6.97-5.65 12.62-12.62 12.62-6.97 0-12.62-5.65-12.62-12.62 0-6.97 5.65-12.62 12.62-12.62 6.97 0 12.62 5.65 12.62 12.62Z" fill="#1186FA"/>
  <path d="m100.03 94.073-9.916 9.916M90.114 94.073l9.915 9.916" stroke="#fff" stroke-width="3" stroke-linecap="round" stroke-linejoin="round"/>
</svg>
