<svg width="121" height="96" viewBox="0 0 121 96" fill="none" xmlns="http://www.w3.org/2000/svg">
    <path d="M8.971 15.987c9.665 0 9.665.605 10.844-1.757l3.927-12.473A2.516 2.516 0 0 1 26.144 0h85.048a2.512 2.512 0 0 1 2.506 2.742l-7.079 75.231a2.513 2.513 0 0 1-2.506 2.274h-91c-1.3 0-2.385-.987-2.505-2.277L5.097 18.726a2.511 2.511 0 0 1 2.506-2.74H8.97Z" fill="#BFD1F7"/>
    <path d="M27.036 30.857c1.1 0 2.072-.712 2.402-1.757l3.927-12.473a2.516 2.516 0 0 1 2.401-1.757h82.217a2.512 2.512 0 0 1 2.506 2.742l-7.079 75.231a2.512 2.512 0 0 1-2.505 2.274H8.528c-1.3 0-2.386-.987-2.506-2.276L.51 33.596a2.511 2.511 0 0 1 2.506-2.74h24.02Z" fill="#DEE7FA"/>
    <path d="M56.365 61.283c0-1.12.167-2.121.501-3.002.334-.92.773-1.76 1.316-2.521a20 20 0 0 1 1.879-2.221c.71-.68 1.44-1.36 2.193-2.041l1.503-1.44c.501-.481.94-.981 1.316-1.502.375-.56.668-1.16.877-1.8.208-.64.313-1.381.313-2.222 0-1.52-.48-2.7-1.441-3.541-.919-.88-2.172-1.321-3.759-1.321-2.13 0-3.78.46-4.949 1.38-1.127.921-1.942 2.542-2.443 4.863l-8.081-.96c.334-1.721.856-3.322 1.566-4.803.71-1.52 1.67-2.821 2.882-3.902 1.253-1.12 2.777-2 4.573-2.641 1.837-.64 4.01-.96 6.515-.96 4.469 0 7.956.98 10.462 2.94 2.547 1.962 3.821 4.623 3.821 7.985 0 1.28-.146 2.401-.439 3.362-.25.96-.605 1.82-1.064 2.58-.46.721-.982 1.382-1.567 1.982-.584.6-1.19 1.2-1.816 1.8l-2.13 2.042c-.668.64-1.253 1.3-1.754 1.98a8.473 8.473 0 0 0-1.19 2.042c-.293.68-.44 1.44-.44 2.281v1.02h-8.644v-1.38Zm-.063 5.403h8.645v9.544h-8.645v-9.544Z" fill="#BFD1F7"/>
</svg>