<svg width="101" height="100" fill="none" xmlns="http://www.w3.org/2000/svg">
  <ellipse cx="51.097" cy="50" rx="49.405" ry="50" fill="#F0F8FF"/>
  <path d="M88.663 19.143a2.904 2.904 0 0 0-2.59-3.23l-50.237-4.986a2.897 2.897 0 0 0-3.154 2.522l-8.457 65.907a2.904 2.904 0 0 0 2.596 3.266l47.119 4.505a2.897 2.897 0 0 0 3.15-2.566l4.887-43.285 1.24.123a2.897 2.897 0 0 0 3.158-2.556l2.288-19.7Z" fill="#1186FA"/>
  <path d="m78.324 17.024-45.385-3.57-.671 3.27 19.79 7.423L75.107 69.93l5.678-49.91a2.696 2.696 0 0 0-2.46-2.997Z" fill="#205CDF" style="mix-blend-mode:overlay"/>
  <path d="M26.98 17.656a2.484 2.484 0 0 1 2.65-2.316l46.467 3.283a2.488 2.488 0 0 1 2.3 2.655l-4.106 60.538a2.484 2.484 0 0 1-2.649 2.316l-46.467-3.284a2.488 2.488 0 0 1-2.301-2.655l4.107-60.537Z" fill="#DEE7FA"/>
  <path d="m71.489 26.274 3.565 43.396-8.216-31.509-10.283-20.867 3.255.155 11.679 8.825Z" fill="#000" style="mix-blend-mode:overlay"/>
  <path d="M16.053 23.218a2.593 2.593 0 0 1 2.212-2.9l37.047-5.1 14.521 11.835 6.092 49.402a2.593 2.593 0 0 1-2.23 2.893l-47.127 6.18a2.586 2.586 0 0 1-2.898-2.245l-7.617-60.065Z" fill="#fff"/>
  <path d="M32.293 61.842a17.34 17.34 0 0 1-2.788-3.356l-.093-.146-2.307 2.065 2.88 3.502 2.308-2.065Z" fill="#205CDF"/>
  <path d="m28.983 61.572-1.746-1.23 2.888 3.469c.427-.383-.102-1.692-.621-1.936a3.454 3.454 0 0 1-.52-.303Z" fill="#000" style="mix-blend-mode:overlay"/>
  <path d="M27.056 60.16a.721.721 0 0 0-.982-.116L3.556 76.752c-2.292 1.7-2.65 5.004-.776 7.16a4.86 4.86 0 0 0 6.991.369l20.553-19.173a.729.729 0 0 0 .06-1.002l-3.328-3.947Z" fill="#1186FA"/>
  <path d="M29.862 48.49c-.347 8.255 6.033 15.23 14.25 15.578 8.218.35 15.161-6.06 15.508-14.315.348-8.255-6.032-15.23-14.25-15.578-8.217-.35-15.16 6.06-15.508 14.315Z" fill="#1186FA" fill-opacity=".1"/>
  <path fill-rule="evenodd" clip-rule="evenodd" d="M43.98 67.137c-9.905-.42-17.596-8.828-17.177-18.778.418-9.95 8.787-17.675 18.693-17.255 9.905.42 17.595 8.828 17.177 18.778-.419 9.95-8.788 17.676-18.693 17.255Zm.127-3.042c-8.232-.35-14.623-7.336-14.275-15.605.348-8.269 7.303-14.689 15.535-14.34 8.231.35 14.622 7.337 14.274 15.605-.348 8.27-7.303 14.69-15.534 14.34Z" fill="#1186FA" fill-opacity=".32"/>
  <path d="M54.279 40.792a12.471 12.471 0 0 0-8.177-3.041c-6.926 0-12.541 5.631-12.541 12.577 0 2.979 1.032 5.716 2.758 7.87a12.563 12.563 0 0 1-4.364-9.536c0-6.946 5.615-12.577 12.541-12.577 3.956 0 7.484 1.837 9.782 4.707Z" fill="#fff"/>
  <path d="M57.106 25.732 55.31 15.374l14.572 11.68-8.86 1.47a3.412 3.412 0 0 1-3.916-2.792Z" fill="#EFF2F5"/>
  <path d="M43.14 51.876a3.4 3.4 0 0 1 .01-1.174c.07-.37.181-.715.335-1.035.167-.338.352-.655.557-.952.219-.298.446-.598.68-.9l.465-.632c.155-.211.286-.426.393-.646.104-.234.176-.48.216-.736.039-.256.035-.544-.013-.865-.087-.581-.33-1.006-.727-1.274-.384-.286-.865-.385-1.442-.298-.775.117-1.348.383-1.721.799-.358.414-.561 1.077-.61 1.991l-2.995.077a7.917 7.917 0 0 1 .295-1.92c.172-.62.447-1.17.825-1.649a4.973 4.973 0 0 1 1.513-1.26c.631-.345 1.403-.587 2.314-.724 1.626-.245 2.95-.063 3.973.549 1.039.61 1.654 1.556 1.846 2.84.073.489.084.925.033 1.308-.037.38-.117.728-.24 1.044a4.74 4.74 0 0 1-.456.843c-.179.261-.365.524-.558.787l-.658.897a5.88 5.88 0 0 0-.525.853 3.32 3.32 0 0 0-.316.845 2.308 2.308 0 0 0-.03.895l.059.39-3.144.475-.08-.528Zm.286 2.067 3.144-.474.545 3.645-3.144.475-.545-3.646Z" fill="#1186FA" fill-opacity=".2"/>
  <path d="m74.33 81.142-25.114 1.401L75 69.93l-.671 11.213Z" fill="#000" style="mix-blend-mode:overlay"/>
</svg>
