<svg width="153" height="94" fill="none" xmlns="http://www.w3.org/2000/svg">
  <g clip-path="url(#nothing-selected-a)">
    <rect width="44.764" height="27.037" rx="3" transform="rotate(7.824 50.051 731.962) skewX(.014)" fill="#BCCEF5"/>
    <path d="m167.473 9.257-72.948 31.4 67.372 9.256 5.576-40.656Z" fill="#799DEC"/>
    <path d="m100.103 0 61.215 49.833-66.79-9.177L100.102 0Z" fill="#799DEC"/>
    <path d="M160.448 48.904 130.76 24.888l2.619-.873 27.069 24.889Z" fill="#000" fill-opacity=".5" style="mix-blend-mode:overlay"/>
  </g>
  <g clip-path="url(#nothing-selected-b)">
    <rect width="60.376" height="36.466" rx="3" transform="matrix(-.9907 .13612 .13588 .99073 60.262 8.63)" fill="#BCCEF5"/>
    <path d="m-30.608 21.116 98.388 42.35-90.867 12.485-7.52-54.835Z" fill="#799DEC"/>
    <path d="m60.26 8.63-82.563 67.213 90.084-12.378-7.52-54.835Z" fill="#799DEC"/>
    <path d="M-21.131 74.59 18.91 42.199l-3.533-1.178-36.51 33.569Z" fill="#000" fill-opacity=".5" style="mix-blend-mode:overlay"/>
  </g>
  <g filter="url(#nothing-selected-c)">
    <path d="m125.299 34.642-50.263 35.11-50.262-35.11L70.785 2.49a7.434 7.434 0 0 1 8.507 0l9.178 6.423 2.403 1.67 24.197 16.912 2.549 1.79 7.68 5.358Z" fill="#E9EFFC"/>
  </g>
  <path d="M66.864 64.043 24.774 94V34.642l42.09 29.401ZM83.212 64.043 125.3 94V34.642l-42.09 29.401Z" fill="#BCCEF5"/>
  <path d="m24.774 94 45.957-32.704a7.42 7.42 0 0 1 8.615 0L125.299 94H24.774Z" fill="#799DEC"/>
  <path d="M124.436 49.473c9.344 4.374 21.979 7.545 28.116 8.569-1.389 3.23-27.358 27.383-38.999 32.116-.792.122-19.082-8.394-29.119-14.234.341.487 26.441-13.276 40.002-26.451Z" fill="#F0F8FF"/>
  <path d="M122.305 56.493c.43-.299.975-.38 1.474-.218l16.346 5.293a.87.87 0 0 1 .4 1.385 1.195 1.195 0 0 1-1.306.366l-16.763-5.747a.61.61 0 0 1-.151-1.079ZM117.724 60.85c.415-.39 1.01-.52 1.55-.338l11.315 3.812c.5.168.676.785.342 1.191-.274.333-.725.461-1.132.322l-11.871-4.046a.562.562 0 0 1-.204-.94ZM113.027 64.468a1.588 1.588 0 0 1 1.536-.253l13.035 4.742a.758.758 0 0 1 .293 1.232 1.042 1.042 0 0 1-1.117.263l-13.585-4.99a.579.579 0 0 1-.162-.994ZM102.436 71.705a1.45 1.45 0 0 1 1.592-.382l7.448 2.845a.742.742 0 0 1 .333 1.133c-.273.37-.759.51-1.187.344l-7.985-3.095a.528.528 0 0 1-.201-.845ZM107.3 67.84a1.684 1.684 0 0 1 1.475-.156l17.164 6.282a.77.77 0 0 1 .242 1.301c-.291.255-.698.33-1.061.196l-17.706-6.529a.613.613 0 0 1-.114-1.095Z" fill="#BCCEF5"/>
  <defs>
    <clipPath id="nothing-selected-a">
      <rect width="44.764" height="27.037" rx="3" transform="rotate(7.824 50.051 731.962) skewX(.014)" fill="#fff"/>
    </clipPath>
    <clipPath id="nothing-selected-b">
      <rect width="60.376" height="36.466" rx="3" transform="matrix(-.9907 .13612 .13588 .99073 60.262 8.63)" fill="#fff"/>
    </clipPath>
    <filter id="nothing-selected-c" x="21.732" y="1.152" width="106.608" height="74.683" filterUnits="userSpaceOnUse" color-interpolation-filters="sRGB">
      <feFlood flood-opacity="0" result="BackgroundImageFix"/>
      <feColorMatrix in="SourceAlpha" values="0 0 0 0 0 0 0 0 0 0 0 0 0 0 0 0 0 0 127 0" result="hardAlpha"/>
      <feOffset dy="3.042"/>
      <feGaussianBlur stdDeviation="1.521"/>
      <feComposite in2="hardAlpha" operator="out"/>
      <feColorMatrix values="0 0 0 0 0 0 0 0 0 0 0 0 0 0 0 0 0 0 0.25 0"/>
      <feBlend in2="BackgroundImageFix" result="effect1_dropShadow_6656_53657"/>
      <feBlend in="SourceGraphic" in2="effect1_dropShadow_6656_53657" result="shape"/>
    </filter>
  </defs>
</svg>
