<svg fill="none" xmlns="http://www.w3.org/2000/svg" width="163" height="168" viewBox="0 0 163 168">
    <path d="M48.632 80.848a2.77 2.77 0 0 0 2.645-1.935l4.325-13.737a2.771 2.771 0 0 1 2.645-1.936h93.67c1.633 0 2.912 1.4 2.759 3.02l-7.796 82.858a2.767 2.767 0 0 1-2.759 2.504H53.194a2.768 2.768 0 0 1-2.76-2.507l-6.07-65.25a2.766 2.766 0 0 1 2.76-3.017h1.508Z" fill="#DEE7FA"/>
    <path d="M1.052 99.668a2.755 2.755 0 0 1-.454-3.879L32.66 55.397a2.779 2.779 0 0 1 3.896-.452l69.12 54.577a2.755 2.755 0 0 1 .459 3.869L74.271 153.87a2.778 2.778 0 0 1-3.901.461L1.052 99.669Z" fill="#1186FA"/>
    <path d="M44.431 103.633 20.524 70.835l-3.465 4.143 22.175 31.762 5.197-3.107Z" fill="#455664" style="mix-blend-mode:overlay"/>
    <path d="M17.395 67.18a2.756 2.756 0 0 1 .607-3.855L81.617 17.03a2.778 2.778 0 0 1 3.877.606l68.37 93.716a2.756 2.756 0 0 1-.607 3.854l-63.615 46.296a2.778 2.778 0 0 1-3.877-.606L17.395 67.18Z" fill="#1186FA"/>
    <path d="M36.196 74.141a1.378 1.378 0 0 0-.32 1.926l1.879 2.62a1.39 1.39 0 0 0 1.934.321l50.433-35.965a1.378 1.378 0 0 0 .32-1.926l-1.878-2.62a1.39 1.39 0 0 0-1.935-.32L36.196 74.14ZM28.607 65.254a1.378 1.378 0 0 0-.32 1.925l1.88 2.621a1.39 1.39 0 0 0 1.934.32L53.34 54.959a1.378 1.378 0 0 0 .32-1.926l-1.88-2.62a1.39 1.39 0 0 0-1.934-.32l-21.239 15.16ZM44.022 84.665a1.378 1.378 0 0 0-.322 1.926l1.88 2.62a1.39 1.39 0 0 0 1.934.32l50.433-35.964a1.378 1.378 0 0 0 .321-1.926l-1.88-2.62a1.39 1.39 0 0 0-1.934-.32L44.022 84.664Z" fill="#F7F9FA"/>
    <path d="M64.528 98.11 38.54 48.395l-3.811 2.762 26.333 49.715 3.465-2.762Z" fill="#455664" style="mix-blend-mode:overlay"/>
    <path d="M33.94 40.82a2.757 2.757 0 0 1 1.153-3.728L104.69.322a2.778 2.778 0 0 1 3.751 1.152l54.238 102.484a2.757 2.757 0 0 1-1.153 3.728l-69.598 36.77a2.776 2.776 0 0 1-3.75-1.152L33.94 40.821Z" fill="#1186FA"/>
    <path d="M51.55 50.386a1.379 1.379 0 0 0-.593 1.86l1.484 2.861a1.388 1.388 0 0 0 1.869.592l55.07-28.42a1.38 1.38 0 0 0 .594-1.86l-1.485-2.862a1.388 1.388 0 0 0-1.868-.592l-55.07 28.42ZM45.313 40.51a1.379 1.379 0 0 0-.594 1.86l1.485 2.86c.352.679 1.19.944 1.87.593l23.193-11.984c.68-.35.945-1.183.593-1.86l-1.484-2.861a1.388 1.388 0 0 0-1.87-.592L45.314 40.509ZM57.787 61.915a1.379 1.379 0 0 0-.594 1.86l1.485 2.862a1.388 1.388 0 0 0 1.869.592l55.07-28.42a1.38 1.38 0 0 0 .594-1.861l-1.485-2.861a1.388 1.388 0 0 0-1.868-.593l-55.07 28.42ZM64.024 73.653a1.379 1.379 0 0 0-.594 1.86l1.485 2.862a1.388 1.388 0 0 0 1.868.592l55.071-28.42c.679-.351.945-1.184.593-1.86l-1.484-2.862a1.389 1.389 0 0 0-1.869-.592l-55.07 28.42ZM71.647 86.772a1.379 1.379 0 0 0-.594 1.86l1.484 2.862a1.388 1.388 0 0 0 1.87.592l55.069-28.42c.68-.35.946-1.183.594-1.86l-1.484-2.862a1.389 1.389 0 0 0-1.869-.592l-55.07 28.42ZM78.576 101.272a1.38 1.38 0 0 0-.593 1.861l1.484 2.861a1.388 1.388 0 0 0 1.869.592l55.07-28.42c.68-.35.945-1.183.594-1.86l-1.485-2.862a1.388 1.388 0 0 0-1.868-.592l-55.07 28.42Z" fill="#F7F9FA"/>
    <path d="M59.226 97.226a2.77 2.77 0 0 0 2.645-1.936l4.325-13.737a2.77 2.77 0 0 1 2.645-1.935h90.552c1.633 0 2.912 1.4 2.76 3.02l-7.796 82.858a2.77 2.77 0 0 1-2.76 2.504H38.842a2.769 2.769 0 0 1-2.76-2.507l-6.07-65.251a2.766 2.766 0 0 1 2.76-3.016h26.454Z" fill="#DEE7FA"/>
</svg>